<?xml version="1.0" encoding="iso-8859-1"?>
<!-- Generator: Adobe Illustrator 19.0.0, SVG Export Plug-In . SVG Version: 6.00 Build 0)  -->
<svg xmlns="http://www.w3.org/2000/svg" xmlns:xlink="http://www.w3.org/1999/xlink" version="1.1" id="Capa_1" x="0px" y="0px" viewBox="0 0 365 365" style="enable-background:new 0 0 365 365;" xml:space="preserve" width="512px" height="512px">
<g>
	<g>
		<path d="M234.5,15v68.8c0,0.1,0,0.3,0,0.4c0.1,2.8,2.5,4.9,5.3,4.8h69.1L234.5,15z" fill="#495867"/>
	</g>
</g>
<g>
	<g>
		<path d="M234.5,15L234.5,15L234.5,15z" fill="#495867"/>
	</g>
</g>
<g>
	<g>
		<path d="M239.8,109c-0.1,0-0.3,0-0.4,0c-13.8-0.1-25-11.4-24.9-25.3V0H62.6c-0.1,0-0.1,0-0.2,0c-11.6,0.1-21,9.6-20.9,21.2v323.2    c0,11.7,9.4,20.6,21.1,20.6h239.8c11.7,0,21.1-8.9,21.1-20.6V109H239.8z M208.5,192.1h13.6c5.5,0,10,4.5,10,10s-4.5,10-10,10    h-13.9c-1.8,8.2-5.9,15.7-11.8,21.7c-7.6,7.9-18,12.6-29,13.3l38.9,36.7c4,3.8,4.2,10.1,0.4,14.1c-3.8,4-10.1,4.2-14.1,0.4    l-57.1-54c-2-1.9-3.1-4.5-3.1-7.3c0-5.5,4.5-10,10-10h22.8c6.5-0.1,12.7-2.8,17.2-7.5c2.2-2.1,3.9-4.7,5-7.5h-45    c-5.5,0-10-4.5-10-10s4.5-10,10-10h45c-4.1-8.5-12.7-13.9-22.1-14h-22.8c-5.5,0-10-4.5-10-10s4.5-10,10-10h79.9    c5.5,0,10,4.5,10,10s-4.4,10-10,10.1h-20C205.3,182.3,207.3,187.1,208.5,192.1z" fill="#495867"/>
	</g>
</g>
<g>
</g>
<g>
</g>
<g>
</g>
<g>
</g>
<g>
</g>
<g>
</g>
<g>
</g>
<g>
</g>
<g>
</g>
<g>
</g>
<g>
</g>
<g>
</g>
<g>
</g>
<g>
</g>
<g>
</g>
</svg>
