<?xml version="1.0" encoding="iso-8859-1"?>
<!-- Generator: Adobe Illustrator 16.0.0, SVG Export Plug-In . SVG Version: 6.00 Build 0)  -->
<!DOCTYPE svg PUBLIC "-//W3C//DTD SVG 1.1//EN" "http://www.w3.org/Graphics/SVG/1.1/DTD/svg11.dtd">
<svg xmlns="http://www.w3.org/2000/svg" xmlns:xlink="http://www.w3.org/1999/xlink" version="1.1" id="Capa_1" x="0px" y="0px" width="512px" height="512px" viewBox="0 0 986 986" style="enable-background:new 0 0 986 986;" xml:space="preserve">
<g>
	<path d="M60,856.55h799.8c33.101,0,60-26.9,60-60v-135.4H632.7c-21.5,0-42.5-4.199-62.2-12.6c-19-8-36.1-19.6-50.7-34.199   c-14.6-14.6-26.2-31.701-34.2-50.701C477.3,543.95,473,522.95,473,501.45v-16.9c0-21.5,4.2-42.5,12.6-62.2   c8-19,19.601-36.1,34.2-50.7c14.601-14.6,31.7-26.2,50.7-34.2c19.7-8.3,40.7-12.6,62.2-12.6h287.1v-135.4c0-33.1-26.899-60-60-60   H60c-33.1,0-60,26.9-60,60v607.1C0,829.649,26.9,856.55,60,856.55z" fill="#495867"/>
	<path d="M986,429.85c0-24.9-20.1-45-45-45h-21.2H632.7c-55.101,0-99.7,44.6-99.7,99.7v16.9c0,55.1,44.6,99.699,99.7,99.699h287.1   H941c24.9,0,45-20.1,45-45V429.85z M649,545.95c-29.3,0-53-23.699-53-53c0-29.3,23.7-53,53-53s53,23.7,53,53   C702,522.251,678.3,545.95,649,545.95z" fill="#495867"/>
</g>
<g>
</g>
<g>
</g>
<g>
</g>
<g>
</g>
<g>
</g>
<g>
</g>
<g>
</g>
<g>
</g>
<g>
</g>
<g>
</g>
<g>
</g>
<g>
</g>
<g>
</g>
<g>
</g>
<g>
</g>
</svg>
