<svg xmlns="http://www.w3.org/2000/svg" xmlns:xlink="http://www.w3.org/1999/xlink" viewBox="0 0 1308 758">
  <defs>
    <style>
      .cls-1 {
        stroke: #707070;
      }

      .cls-1, .cls-2 {
        fill: url(#linear-gradient);
      }

      .cls-3 {
        clip-path: url(#clip-path);
      }

      .cls-4 {
        fill: #ff7a6e;
      }

      .cls-4, .cls-5 {
        opacity: 0.57;
      }

      .cls-5 {
        fill: #ff6250;
      }

      .cls-6, .cls-7 {
        stroke: none;
      }

      .cls-7 {
        fill: #ff7272;
      }
    </style>
    <linearGradient id="linear-gradient" x1="0.148" y1="-0.249" x2="0.709" y2="1.117" gradientUnits="objectBoundingBox">
      <stop offset="0" stop-color="#fe5f55"/>
      <stop offset="1" stop-color="#e6483f"/>
    </linearGradient>
    <clipPath id="clip-path">
      <rect id="Rectangle_6" data-name="Rectangle 6" class="cls-1" width="1300" height="750" rx="50" transform="translate(70 285)"/>
    </clipPath>
  </defs>
  <g id="Card_BG" data-name="Card BG" transform="translate(-66 -281)">
    <g id="Path_14" data-name="Path 14" class="cls-2" transform="translate(70 285)">
      <path class="cls-6" d="M 1250 752 L 50 752 C 42.98099899291992 752 36.17083358764648 750.6248168945313 29.7586669921875 747.912841796875 C 23.56633377075195 745.2936401367188 18.00550079345703 741.5444946289063 13.23050022125244 736.7696533203125 C 8.455499649047852 731.9946899414063 4.706333160400391 726.433837890625 2.087166547775269 720.2413330078125 C -0.624833345413208 713.829345703125 -2 707.0191650390625 -2 700 L -2 50 C -2 42.98099899291992 -0.624833345413208 36.17083358764648 2.087166547775269 29.7586669921875 C 4.706333160400391 23.56633377075195 8.455499649047852 18.00550079345703 13.23050022125244 13.23050022125244 C 18.00550079345703 8.455499649047852 23.56633377075195 4.706333160400391 29.7586669921875 2.087166547775269 C 36.17083358764648 -0.624833345413208 42.98099899291992 -2 50 -2 L 1250 -2 C 1257.019165039063 -2 1263.829345703125 -0.624833345413208 1270.241333007813 2.087166547775269 C 1276.433837890625 4.706333160400391 1281.99462890625 8.455499649047852 1286.769653320313 13.23050022125244 C 1291.544555664063 18.00550079345703 1295.293701171875 23.56633377075195 1297.912841796875 29.7586669921875 C 1300.624877929688 36.17083358764648 1302 42.98099899291992 1302 50 L 1302 700 C 1302 707.0191650390625 1300.624877929688 713.829345703125 1297.912841796875 720.2413330078125 C 1295.293701171875 726.433837890625 1291.544555664063 731.9946899414063 1286.769653320313 736.7696533203125 C 1281.99462890625 741.5444946289063 1276.433837890625 745.2936401367188 1270.241333007813 747.912841796875 C 1263.829345703125 750.6248168945313 1257.019165039063 752 1250 752 Z"/>
      <path class="cls-7" d="M 50 0 C 22.3856201171875 0 0 22.38568115234375 0 50 L 0 700 C 0 727.6141357421875 22.3856201171875 750 50 750 L 1250 750 C 1277.614135742188 750 1300 727.6141357421875 1300 700 L 1300 50 C 1300 22.38568115234375 1277.614135742188 0 1250 0 L 50 0 M 50 -4 L 1250 -4 C 1257.288208007813 -4 1264.360473632813 -2.5716552734375 1271.0205078125 0.24517822265625 C 1274.220947265625 1.5989990234375 1277.3076171875 3.27435302734375 1280.194702148438 5.22467041015625 C 1283.05322265625 7.15582275390625 1285.7412109375 9.37347412109375 1288.183715820313 11.816162109375 C 1290.626342773438 14.25885009765625 1292.843994140625 16.9466552734375 1294.775390625 19.80535888671875 C 1296.725708007813 22.69232177734375 1298.401000976563 25.77880859375 1299.7548828125 28.9794921875 C 1302.571655273438 35.6395263671875 1304 42.71185302734375 1304 50 L 1304 700 C 1304 707.2881469726563 1302.571655273438 714.3604736328125 1299.7548828125 721.0205078125 C 1298.401000976563 724.2210083007813 1296.725708007813 727.3076782226563 1294.775390625 730.1946411132813 C 1292.843994140625 733.0531616210938 1290.626342773438 735.7411499023438 1288.183715820313 738.1836547851563 C 1285.7412109375 740.6263427734375 1283.05322265625 742.843994140625 1280.194702148438 744.7753295898438 C 1277.3076171875 746.7256469726563 1274.220947265625 748.4010009765625 1271.0205078125 749.7548217773438 C 1264.360473632813 752.5716552734375 1257.288208007813 754 1250 754 L 50 754 C 42.7117919921875 754 35.6395263671875 752.5716552734375 28.9794921875 749.7548217773438 C 25.77880859375 748.4010009765625 22.6923828125 746.7256469726563 19.8052978515625 744.7753295898438 C 16.9466552734375 742.843994140625 14.2587890625 740.6263427734375 11.816162109375 738.1836547851563 C 9.37353515625 735.7411499023438 7.1558837890625 733.0531616210938 5.224609375 730.1946411132813 C 3.2742919921875 727.3076782226563 1.5989990234375 724.2210083007813 0.2451171875 721.0205078125 C -2.5716552734375 714.3604736328125 -4 707.2881469726563 -4 700 L -4 50 C -4 42.71185302734375 -2.5716552734375 35.6395263671875 0.2451171875 28.9794921875 C 1.5989990234375 25.77880859375 3.2742919921875 22.69232177734375 5.224609375 19.80535888671875 C 7.1558837890625 16.9466552734375 9.37353515625 14.25885009765625 11.816162109375 11.816162109375 C 14.2587890625 9.37347412109375 16.9466552734375 7.15582275390625 19.8052978515625 5.22467041015625 C 22.6923828125 3.27435302734375 25.77880859375 1.5989990234375 28.9794921875 0.24517822265625 C 35.6395263671875 -2.5716552734375 42.7117919921875 -4 50 -4 Z"/>
    </g>
    <g id="Mask_Group_2" data-name="Mask Group 2" class="cls-3">
      <g id="Group_192" data-name="Group 192">
        <path id="Path_10" data-name="Path 10" class="cls-4" d="M4559.475,902S5376.319,683.921,5910.98,244.311c2.971,7.426,0,824.27,0,824.27H4559.475Z" transform="translate(-4460 167)"/>
        <path id="Path_11" data-name="Path 11" class="cls-5" d="M4559.475,962.77s892.319-238.229,1476.383-718.459c3.246,8.112,0,900.432,0,900.432H4559.475Z" transform="translate(-4519.306 -431.304) rotate(5)"/>
      </g>
    </g>
  </g>
</svg>
