<svg xmlns="http://www.w3.org/2000/svg" xmlns:xlink="http://www.w3.org/1999/xlink" viewBox="0 0 167 167">
  <defs>
    <style>
      .cls-1, .cls-2 {
        fill: #fff;
      }

      .cls-1 {
        stroke: #707070;
      }

      .cls-3 {
        clip-path: url(#clip-path);
      }

      .cls-4 {
        clip-path: url(#clip-path-2);
      }
    </style>
    <clipPath id="clip-path">
      <rect id="Rectangle_7" data-name="Rectangle 7" class="cls-1" width="167" height="167" transform="translate(263 359)"/>
    </clipPath>
    <clipPath id="clip-path-2">
      <rect id="Rectangle_8" data-name="Rectangle 8" class="cls-2" width="37.243" height="37.243" transform="translate(230 440)"/>
    </clipPath>
  </defs>
  <g id="Chip" transform="translate(-170 -380)">
    <g id="Mask_Group_3" data-name="Mask Group 3" class="cls-3" transform="translate(-93 21)">
      <g id="chip-2" data-name="chip" transform="translate(263 359)">
        <g id="Group_194" data-name="Group 194" transform="translate(31.379 0)">
          <g id="Group_193" data-name="Group 193">
            <path id="Path_12" data-name="Path 12" class="cls-2" d="M169.439,81.054H130.051V75.488h10.627a2.446,2.446,0,1,0,0-4.893H130.051V65.029h7.378a10.222,10.222,0,0,0,7.276-3.014l16.089-16.089a7.671,7.671,0,1,0-3.46-3.46L141.245,58.556a5.363,5.363,0,0,1-3.817,1.581H130.05v-5.4a12.919,12.919,0,0,0-12.9-12.9h-5.4V20.179a7.675,7.675,0,1,0-4.893,0V41.834H101.29V31.207a2.446,2.446,0,1,0-4.893,0V41.834H90.831V2.447a2.446,2.446,0,1,0-4.893,0V41.834H80.373V31.207a2.446,2.446,0,1,0-4.893,0V41.834H69.915V34.457A10.222,10.222,0,0,0,66.9,27.18L50.806,11.086a7.679,7.679,0,1,0-3.459,3.459L63.441,30.64a5.361,5.361,0,0,1,1.581,3.817v7.378h-5.4a12.959,12.959,0,0,0-3.225.407,2.446,2.446,0,1,0,1.22,4.738,8.057,8.057,0,0,1,2.005-.252h57.521a8.021,8.021,0,0,1,8.012,8.012v57.522a8.059,8.059,0,0,1-.252,2,2.446,2.446,0,1,0,4.738,1.218,12.946,12.946,0,0,0,.406-3.222v-5.4h21.656a7.675,7.675,0,1,0,0-4.893H130.05V96.4h10.627a2.446,2.446,0,1,0,0-4.893H130.05V85.946h39.388a2.446,2.446,0,0,0,0-4.893Zm-7.2-43.97a2.783,2.783,0,1,1-.815,1.968A2.764,2.764,0,0,1,162.242,37.084ZM45.9,9.644a2.782,2.782,0,1,1,0-3.936A2.787,2.787,0,0,1,45.9,9.644Zm63.4,6.044a2.783,2.783,0,1,1,2.783-2.783A2.786,2.786,0,0,1,109.3,15.688Zm49.678,85.946a2.783,2.783,0,1,1-2.783,2.783A2.786,2.786,0,0,1,158.98,101.634Z" transform="translate(-36.265 0)"/>
          </g>
        </g>
        <g id="Group_196" data-name="Group 196" transform="translate(0 49.677)">
          <g id="Group_195" data-name="Group 195">
            <path id="Path_13" data-name="Path 13" class="cls-2" d="M133.376,161.631a7.684,7.684,0,0,0-8.838-1.442l-16.094-16.095a5.361,5.361,0,0,1-1.581-3.817V132.9h5.4a12.952,12.952,0,0,0,3.225-.407,2.446,2.446,0,0,0-1.22-4.738,8.051,8.051,0,0,1-2,.252H54.739A8.021,8.021,0,0,1,46.727,120V62.474a8.047,8.047,0,0,1,.252-2,2.446,2.446,0,1,0-4.738-1.22,12.933,12.933,0,0,0-.407,3.225v5.4H20.178a7.675,7.675,0,1,0,0,4.893H41.834V78.33H31.207a2.446,2.446,0,1,0,0,4.893H41.834v5.566H2.446a2.446,2.446,0,0,0,0,4.893H41.834v5.566H31.207a2.446,2.446,0,1,0,0,4.893H41.834v5.566H34.456a10.222,10.222,0,0,0-7.276,3.014L11.091,128.807a7.669,7.669,0,1,0,3.46,3.459L30.64,116.178a5.363,5.363,0,0,1,3.817-1.581h7.378v5.4a12.919,12.919,0,0,0,12.9,12.9h5.4v21.656a7.675,7.675,0,1,0,4.893,0V132.9H70.6v10.627a2.446,2.446,0,0,0,4.893,0V132.9h5.565v39.388a2.446,2.446,0,1,0,4.893,0V132.9h5.566v10.627a2.446,2.446,0,0,0,4.893,0V132.9h5.566v7.378a10.222,10.222,0,0,0,3.014,7.276l16.094,16.094a7.673,7.673,0,1,0,12.3-2.017ZM12.9,73.1a2.783,2.783,0,1,1,2.783-2.783A2.786,2.786,0,0,1,12.9,73.1Zm-3.261,64.55a2.783,2.783,0,1,1,.815-1.968A2.764,2.764,0,0,1,9.643,137.651Zm55.722,24.179a2.783,2.783,0,1,1-2.783-2.783A2.786,2.786,0,0,1,65.366,161.829Zm64.551,7.2a2.782,2.782,0,1,1,0-3.936A2.786,2.786,0,0,1,129.916,169.026Z" transform="translate(0 -57.412)"/>
          </g>
        </g>
      </g>
    </g>
    <g id="Mask_Group_4" data-name="Mask Group 4" class="cls-4" transform="translate(5.378 5.378)">
      <g id="rupee-indian" transform="translate(236.745 440)">
        <path id="Path_15" data-name="Path 15" class="cls-2" d="M32.208,8.438A.823.823,0,0,0,31.6,8.2H27.077a9.156,9.156,0,0,0-1.693-3.809h6.163a.813.813,0,0,0,.846-.846V.846A.814.814,0,0,0,31.547,0H9.54a.815.815,0,0,0-.846.846V4.364a.858.858,0,0,0,.846.846h3.835q5.581,0,7.089,2.989H9.54a.815.815,0,0,0-.846.846v2.7a.814.814,0,0,0,.846.846H20.835A5.169,5.169,0,0,1,18.123,15.9,11.937,11.937,0,0,1,12.5,17.034H9.54a.858.858,0,0,0-.846.846v3.36a.791.791,0,0,0,.238.582q5.078,5.4,13.173,15.1a.78.78,0,0,0,.661.317h5.158a.767.767,0,0,0,.767-.476.723.723,0,0,0-.106-.9Q20.862,26.4,16.444,21.69a13.415,13.415,0,0,0,7.3-2.909,9.889,9.889,0,0,0,3.412-6.19H31.6a.815.815,0,0,0,.846-.846v-2.7A.824.824,0,0,0,32.208,8.438Z" transform="translate(-8.693)"/>
      </g>
    </g>
  </g>
</svg>
