<?xml version="1.0"?>
<svg xmlns="http://www.w3.org/2000/svg" height="512px" viewBox="-66 0 512 512" width="512px"><path d="m70 80c5.519531 0 10-4.480469 10-10s-4.480469-10-10-10-10 4.480469-10 10 4.480469 10 10 10zm0 0" fill="#495867"/><path d="m70 140c5.519531 0 10-4.480469 10-10s-4.480469-10-10-10-10 4.480469-10 10 4.480469 10 10 10zm0 0" fill="#495867"/><path d="m30 512h320c16.542969 0 30-13.457031 30-30v-352c0-2.71875-1.128906-5.273438-2.929688-7.070312l-120-120c-1.792968-1.792969-4.347656-2.929688-7.070312-2.929688h-220c-16.542969 0-30 13.457031-30 30v452c0 16.542969 13.457031 30 30 30zm230-477.855469 85.859375 85.855469h-85.859375zm-240-4.144531c0-5.515625 4.484375-10 10-10h210v110c0 5.523438 4.476562 10 10 10h110v342c0 5.515625-4.484375 10-10 10h-320c-5.515625 0-10-4.484375-10-10zm0 0" fill="#495867"/><path d="m70 206h240c5.523438 0 10-4.476562 10-10s-4.476562-10-10-10h-240c-5.523438 0-10 4.476562-10 10s4.476562 10 10 10zm0 0" fill="#495867"/><path d="m70 266h240c5.523438 0 10-4.476562 10-10s-4.476562-10-10-10h-240c-5.523438 0-10 4.476562-10 10s4.476562 10 10 10zm0 0" fill="#495867"/><path d="m110 80h80c5.523438 0 10-4.476562 10-10s-4.476562-10-10-10h-80c-5.523438 0-10 4.476562-10 10s4.476562 10 10 10zm0 0" fill="#495867"/><path d="m110 140h80c5.523438 0 10-4.476562 10-10s-4.476562-10-10-10h-80c-5.523438 0-10 4.476562-10 10s4.476562 10 10 10zm0 0" fill="#495867"/><path d="m290 366c-5.515625 0-10-4.484375-10-10s4.484375-10 10-10c3.542969 0 7.28125 1.808594 10.816406 5.226562 3.96875 3.839844 10.296875 3.734376 14.140625-.230468 3.839844-3.96875 3.734375-10.300782-.234375-14.140625-5.074218-4.914063-10.152344-7.691407-14.722656-9.207031v-11.648438c0-5.523438-4.476562-10-10-10s-10 4.476562-10 10v11.71875c-11.640625 4.128906-20 15.246094-20 28.28125 0 16.542969 13.457031 30 30 30 5.515625 0 10 4.484375 10 10s-4.484375 10-10 10c-4.273438 0-8.882812-2.6875-12.984375-7.566406-3.554687-4.226563-9.863281-4.773438-14.089844-1.21875-4.226562 3.554687-4.773437 9.863281-1.21875 14.089844 5.34375 6.359374 11.632813 10.789062 18.292969 13.023437v11.671875c0 5.523438 4.476562 10 10 10s10-4.476562 10-10v-11.71875c11.640625-4.128906 20-15.246094 20-28.28125 0-16.542969-13.457031-30-30-30zm0 0" fill="#495867"/><path d="m70 326h140c5.523438 0 10-4.476562 10-10s-4.476562-10-10-10h-140c-5.523438 0-10 4.476562-10 10s4.476562 10 10 10zm0 0" fill="#495867"/><path d="m70 386h140c5.523438 0 10-4.476562 10-10s-4.476562-10-10-10h-140c-5.523438 0-10 4.476562-10 10s4.476562 10 10 10zm0 0" fill="#495867"/><path d="m70 446h140c5.523438 0 10-4.476562 10-10s-4.476562-10-10-10h-140c-5.523438 0-10 4.476562-10 10s4.476562 10 10 10zm0 0" fill="#495867"/></svg>
