<?xml version="1.0"?>
<svg xmlns="http://www.w3.org/2000/svg" height="512px" viewBox="0 -76 512 512" width="512px"><path d="m313 90h40v40h-40zm0 110h40v-40h-40zm0 70h40v-40h-40zm199-210v240c0 33.085938-26.914062 60-60 60h-79c-15.355469 0-29.375-5.804688-40-15.328125-10.625 9.523437-24.644531 15.328125-40 15.328125h-233c-33.085938 0-60-26.914062-60-60v-240c0-33.085938 26.914062-60 60-60h233c15.355469 0 29.375 5.804688 40 15.328125 10.625-9.523437 24.644531-15.328125 40-15.328125h79c33.085938 0 60 26.914062 60 60zm-40 0c0-11.027344-8.972656-20-20-20h-79c-11.027344 0-20 8.972656-20 20h-40c0-11.027344-8.972656-20-20-20h-233c-11.027344 0-20 8.972656-20 20v240c0 11.027344 8.972656 20 20 20h233c11.027344 0 20-8.972656 20-20h40c0 11.027344 8.972656 20 20 20h79c11.027344 0 20-8.972656 20-20zm-332 60c0-16.570312-13.433594-30-30-30s-30 13.429688-30 30 13.433594 30 30 30 30-13.429688 30-30zm82 90c-16.566406 0-30 13.429688-30 30s13.433594 30 30 30 30-13.429688 30-30-13.433594-30-30-30zm-31.46875-120-97.296875 180h45.46875l97.296875-180zm0 0" fill="#495867"/></svg>
