<?xml version="1.0" encoding="iso-8859-1"?>
<!-- Generator: Adobe Illustrator 18.0.0, SVG Export Plug-In . SVG Version: 6.00 Build 0)  -->
<!DOCTYPE svg PUBLIC "-//W3C//DTD SVG 1.1//EN" "http://www.w3.org/Graphics/SVG/1.1/DTD/svg11.dtd">
<svg xmlns="http://www.w3.org/2000/svg" xmlns:xlink="http://www.w3.org/1999/xlink" version="1.1" id="Capa_1" x="0px" y="0px" viewBox="0 0 428.131 428.131" style="enable-background:new 0 0 428.131 428.131;" xml:space="preserve" width="512px" height="512px">
<g>
	<path d="M227.459,180.631c2.68-4.641,2.68-10.359,0-15L136.162,7.5c-2.679-4.641-7.631-7.5-12.99-7.5s-10.311,2.859-12.99,7.5   L18.885,165.631c-2.68,4.641-2.68,10.359,0,15c2.679,4.641,7.631,7.5,12.99,7.5h34.297v225c0,8.284,6.716,15,15,15h84   c8.284,0,15-6.716,15-15v-225h34.297C219.828,188.131,224.78,185.271,227.459,180.631z M165.172,158.131c-8.284,0-15,6.716-15,15   v225h-54v-225c0-8.284-6.716-15-15-15H57.856L123.172,45l65.316,113.131H165.172z" fill="#495867"/>
	<path d="M409.246,247.5c-2.68-4.641-7.631-7.5-12.99-7.5h-34.297V15c0-8.284-6.716-15-15-15h-84c-8.284,0-15,6.716-15,15v225   h-34.297c-5.359,0-10.311,2.859-12.99,7.5c-2.68,4.641-2.68,10.359,0,15l91.297,158.131c2.68,4.641,7.631,7.5,12.99,7.5   s10.311-2.859,12.99-7.5L409.246,262.5C411.926,257.859,411.926,252.141,409.246,247.5z M304.959,383.131L239.643,270h23.316   c8.284,0,15-6.716,15-15V30h54v225c0,8.284,6.716,15,15,15h23.316L304.959,383.131z" fill="#495867"/>
</g>
<g>
</g>
<g>
</g>
<g>
</g>
<g>
</g>
<g>
</g>
<g>
</g>
<g>
</g>
<g>
</g>
<g>
</g>
<g>
</g>
<g>
</g>
<g>
</g>
<g>
</g>
<g>
</g>
<g>
</g>
</svg>
