<svg xmlns="http://www.w3.org/2000/svg" height="511pt" version="1.1" viewBox="-53 1 511 511.99906" width="511pt">
<g id="surface1">
<path d="M 276.410156 3.957031 C 274.0625 1.484375 270.84375 0 267.507812 0 L 67.777344 0 C 30.921875 0 0.5 30.300781 0.5 67.152344 L 0.5 444.84375 C 0.5 481.699219 30.921875 512 67.777344 512 L 338.863281 512 C 375.71875 512 406.140625 481.699219 406.140625 444.84375 L 406.140625 144.941406 C 406.140625 141.726562 404.65625 138.636719 402.554688 136.285156 Z M 279.996094 43.65625 L 364.464844 132.328125 L 309.554688 132.328125 C 293.230469 132.328125 279.996094 119.21875 279.996094 102.894531 Z M 338.863281 487.265625 L 67.777344 487.265625 C 44.652344 487.265625 25.234375 468.097656 25.234375 444.84375 L 25.234375 67.152344 C 25.234375 44.027344 44.527344 24.734375 67.777344 24.734375 L 255.261719 24.734375 L 255.261719 102.894531 C 255.261719 132.945312 279.503906 157.0625 309.554688 157.0625 L 381.40625 157.0625 L 381.40625 444.84375 C 381.40625 468.097656 362.113281 487.265625 338.863281 487.265625 Z M 338.863281 487.265625 " style=" stroke:none;fill-rule:nonzero;fill:rgb(0%,0%,0%);fill-opacity:1;" />
<path d="M 305.101562 401.933594 L 101.539062 401.933594 C 94.738281 401.933594 89.171875 407.496094 89.171875 414.300781 C 89.171875 421.101562 94.738281 426.667969 101.539062 426.667969 L 305.226562 426.667969 C 312.027344 426.667969 317.59375 421.101562 317.59375 414.300781 C 317.59375 407.496094 312.027344 401.933594 305.101562 401.933594 Z M 305.101562 401.933594 " style=" stroke:none;fill-rule:nonzero;fill:rgb(0%,0%,0%);fill-opacity:1;" />
<path d="M 181.800781 262.183594 L 153.109375 262.183594 C 148.039062 262.183594 143.464844 265.523438 141.609375 270.222656 C 139.753906 274.921875 140.867188 280.488281 144.578125 283.949219 L 216.429688 351.84375 C 218.78125 354.070312 221.871094 355.308594 224.964844 355.308594 C 228.304688 355.308594 231.519531 354.070312 233.992188 351.472656 C 238.691406 346.527344 238.445312 338.738281 233.496094 334.035156 L 184.277344 287.785156 C 209.628906 286.792969 230.527344 268.492188 235.96875 244.992188 L 253.65625 244.992188 C 260.457031 244.992188 266.023438 239.429688 266.023438 232.625 C 266.023438 225.824219 260.457031 220.257812 253.65625 220.257812 L 235.96875 220.257812 C 234.488281 212.839844 231.765625 206.65625 228.054688 201.707031 L 253.65625 201.707031 C 260.457031 201.707031 266.023438 196.144531 266.023438 189.339844 C 266.023438 182.539062 260.457031 176.972656 253.65625 176.972656 L 153.234375 176.972656 C 146.433594 176.972656 140.867188 182.539062 140.867188 189.339844 C 140.867188 196.144531 146.433594 201.707031 153.234375 201.707031 L 181.925781 201.707031 C 194.417969 201.707031 205.300781 209.128906 210 220.257812 L 153.109375 220.257812 C 146.308594 220.257812 140.742188 225.824219 140.742188 232.625 C 140.742188 239.429688 146.308594 244.992188 153.109375 244.992188 L 210 244.992188 C 205.175781 254.761719 194.417969 262.183594 181.800781 262.183594 Z M 181.800781 262.183594 " style=" stroke:none;fill-rule:nonzero;fill:rgb(0%,0%,0%);fill-opacity:1;" />
</g>
</svg>