<?xml version="1.0"?>
<svg xmlns="http://www.w3.org/2000/svg" height="512px" version="1.1" viewBox="-23 0 512 512.00072" width="512px">
<g id="surface1">
<path d="M 348.945312 221.640625 L 348.945312 124.746094 C 348.945312 121.972656 347.664062 119.410156 345.851562 117.382812 L 237.21875 3.308594 C 235.191406 1.175781 232.308594 0 229.429688 0 L 57.195312 0 C 25.398438 0 0 25.929688 0 57.730469 L 0 383.414062 C 0 415.214844 25.398438 440.71875 57.195312 440.71875 L 193.148438 440.71875 C 218.863281 483.402344 265.605469 512 318.851562 512 C 399.738281 512 465.792969 446.265625 465.792969 365.273438 C 465.902344 294.523438 415.105469 235.40625 348.945312 221.640625 Z M 240.101562 37.457031 L 312.984375 114.179688 L 265.710938 114.179688 C 251.625 114.179688 240.101562 102.550781 240.101562 88.464844 Z M 57.195312 419.375 C 37.242188 419.375 21.34375 403.367188 21.34375 383.414062 L 21.34375 57.730469 C 21.34375 37.667969 37.242188 21.34375 57.195312 21.34375 L 218.757812 21.34375 L 218.757812 88.464844 C 218.757812 114.394531 239.78125 135.523438 265.710938 135.523438 L 327.601562 135.523438 L 327.601562 218.863281 C 324.402344 218.757812 321.839844 218.4375 319.066406 218.4375 C 281.824219 218.4375 247.570312 232.738281 221.746094 255.148438 L 86.222656 255.148438 C 80.351562 255.148438 75.550781 259.949219 75.550781 265.816406 C 75.550781 271.6875 80.351562 276.488281 86.222656 276.488281 L 201.898438 276.488281 C 194.320312 287.160156 188.023438 297.832031 183.117188 309.570312 L 86.222656 309.570312 C 80.351562 309.570312 75.550781 314.371094 75.550781 320.242188 C 75.550781 326.109375 80.351562 330.914062 86.222656 330.914062 L 176.179688 330.914062 C 173.511719 341.585938 172.125 353.429688 172.125 365.273438 C 172.125 384.480469 175.859375 403.476562 182.582031 419.484375 L 57.195312 419.484375 Z M 318.960938 490.765625 C 249.8125 490.765625 193.574219 434.527344 193.574219 365.378906 C 193.574219 296.230469 249.703125 239.992188 318.960938 239.992188 C 388.214844 239.992188 444.34375 296.230469 444.34375 365.378906 C 444.34375 434.527344 388.109375 490.765625 318.960938 490.765625 Z M 318.960938 490.765625 " style=" fill-rule:nonzero;fill-opacity:1;" stroke="#495867" fill="#495867"/>
<path d="M 86.222656 223.027344 L 194.320312 223.027344 C 200.191406 223.027344 204.992188 218.222656 204.992188 212.355469 C 204.992188 206.484375 200.191406 201.683594 194.320312 201.683594 L 86.222656 201.683594 C 80.351562 201.683594 75.550781 206.484375 75.550781 212.355469 C 75.550781 218.222656 80.351562 223.027344 86.222656 223.027344 Z M 86.222656 223.027344 " style=" fill-rule:nonzero;fill-opacity:1;" stroke="#495867" fill="#495867"/>
<path d="M 362.070312 309.460938 C 367.941406 309.460938 372.742188 304.660156 372.742188 298.789062 C 372.742188 292.921875 367.941406 288.121094 362.070312 288.121094 L 275.421875 288.121094 C 269.554688 288.121094 264.75 292.921875 264.75 298.789062 C 264.75 304.660156 269.554688 309.460938 275.421875 309.460938 L 300.179688 309.460938 C 310.957031 309.460938 320.347656 316.929688 324.402344 325.46875 L 275.316406 325.46875 C 269.445312 325.46875 264.644531 330.269531 264.644531 336.140625 C 264.644531 342.007812 269.445312 346.8125 275.316406 346.8125 L 324.402344 346.8125 C 320.242188 356.414062 310.957031 362.816406 300.179688 362.816406 L 275.421875 362.816406 C 271.046875 362.816406 267.097656 365.59375 265.496094 369.648438 C 263.898438 373.703125 264.859375 378.398438 268.058594 381.386719 L 330.058594 439.96875 C 332.085938 441.890625 334.753906 442.851562 337.421875 442.851562 C 340.304688 442.851562 343.078125 441.785156 345.210938 439.542969 C 349.265625 435.273438 349.054688 428.554688 344.785156 424.496094 L 302.3125 384.160156 C 324.191406 383.308594 342.222656 368.261719 346.917969 346.917969 L 362.179688 346.917969 C 368.046875 346.917969 372.851562 342.117188 372.851562 336.246094 C 372.851562 330.378906 368.046875 325.574219 362.179688 325.574219 L 346.917969 325.574219 C 345.636719 320.242188 343.292969 314.90625 340.089844 309.570312 L 362.070312 309.570312 Z M 362.070312 309.460938 " style=" fill-rule:nonzero;fill-opacity:1;" stroke="#495867" fill="#495867"/>
</g>
</svg>
