<?xml version="1.0"?>
<svg xmlns="http://www.w3.org/2000/svg" height="512px" version="1.1" viewBox="-43 1 511 511.99925" width="512px">
<g id="surface1">
<path d="M 318.304688 3.265625 C 316.367188 1.222656 313.714844 0 310.960938 0 L 146.246094 0 C 119.117188 0 96.472656 19.886719 91.984375 45.792969 C 69.140625 49.773438 51.1875 67.824219 47.210938 90.570312 C 20.796875 94.648438 0.5 117.597656 0.5 145.132812 L 0.5 456.617188 C 0.5 487.011719 25.078125 512 55.472656 512 L 279.039062 512 C 306.167969 512 328.710938 492.210938 333.300781 466.304688 C 356.65625 462.738281 375.21875 444.378906 379.195312 421.125 C 405.101562 416.636719 424.785156 393.996094 424.785156 366.761719 L 424.785156 119.535156 C 424.785156 116.882812 423.867188 114.332031 422.03125 112.394531 Z M 320.753906 36.003906 L 390.925781 109.132812 L 345.640625 109.132812 C 332.175781 109.132812 320.753906 98.320312 320.753906 84.855469 Z M 279.039062 491.601562 L 55.472656 491.601562 C 36.296875 491.601562 20.898438 475.792969 20.898438 456.617188 L 20.898438 145.136719 C 20.898438 129.222656 31.097656 115.761719 46.394531 111.683594 L 46.394531 411.742188 C 46.394531 442.136719 70.976562 467.125 101.367188 467.125 L 312.1875 467.125 C 307.800781 481.402344 294.644531 491.601562 279.039062 491.601562 Z M 324.9375 446.726562 L 101.367188 446.726562 C 82.296875 446.726562 66.792969 430.917969 66.792969 411.742188 L 66.792969 100.257812 C 66.792969 84.652344 76.992188 71.496094 91.269531 67.109375 L 91.269531 366.867188 C 91.269531 397.257812 115.851562 422.246094 146.246094 422.246094 L 358.082031 422.246094 C 353.699219 436.527344 340.539062 446.726562 324.9375 446.726562 Z M 369.8125 401.847656 L 146.246094 401.847656 C 127.171875 401.847656 111.671875 386.039062 111.671875 366.863281 L 111.671875 55.382812 C 111.671875 36.308594 127.070312 20.398438 146.246094 20.398438 L 300.355469 20.398438 L 300.355469 84.855469 C 300.355469 109.640625 320.855469 129.53125 345.640625 129.53125 L 404.386719 129.53125 L 404.386719 366.863281 C 404.386719 386.039062 388.988281 401.847656 369.8125 401.847656 Z M 369.8125 401.847656 " style=" fill-rule:nonzero;fill-opacity:1;" stroke="#495867" fill="#495867"/>
<path d="M 341.96875 336.574219 L 174.089844 336.574219 C 168.480469 336.574219 163.890625 341.164062 163.890625 346.773438 C 163.890625 352.382812 168.480469 356.972656 174.089844 356.972656 L 342.070312 356.972656 C 347.679688 356.972656 352.269531 352.382812 352.269531 346.773438 C 352.269531 341.164062 347.679688 336.574219 341.96875 336.574219 Z M 341.96875 336.574219 " style=" fill-rule:nonzero;fill-opacity:1;" stroke="#495867" fill="#495867"/>
<path d="M 240.28125 216.222656 L 216.621094 216.222656 C 212.4375 216.222656 208.664062 218.976562 207.136719 222.851562 C 205.605469 226.726562 206.523438 231.316406 209.582031 234.171875 L 268.839844 290.167969 C 270.777344 292.003906 273.328125 293.023438 275.878906 293.023438 C 278.632812 293.023438 281.285156 292.003906 283.324219 289.863281 C 287.199219 285.78125 286.996094 279.355469 282.914062 275.480469 L 242.222656 237.234375 C 263.128906 236.417969 280.367188 221.320312 284.855469 201.945312 L 299.4375 201.945312 C 305.046875 201.945312 309.636719 197.355469 309.636719 191.746094 C 309.636719 186.136719 305.046875 181.546875 299.4375 181.546875 L 284.855469 181.546875 C 283.628906 175.425781 281.386719 170.328125 278.324219 166.246094 L 299.4375 166.246094 C 305.046875 166.246094 309.636719 161.65625 309.636719 156.046875 C 309.636719 150.4375 305.046875 145.847656 299.4375 145.847656 L 216.621094 145.847656 C 211.011719 145.847656 206.421875 150.4375 206.421875 156.046875 C 206.421875 161.65625 211.011719 166.246094 216.621094 166.246094 L 240.28125 166.246094 C 250.585938 166.246094 259.558594 172.367188 263.433594 181.546875 L 216.519531 181.546875 C 210.910156 181.546875 206.320312 186.136719 206.320312 191.746094 C 206.320312 197.355469 210.910156 201.945312 216.519531 201.945312 L 263.433594 201.945312 C 259.558594 210.105469 250.683594 216.222656 240.28125 216.222656 Z M 240.28125 216.222656 " style=" fill-rule:nonzero;fill-opacity:1;" stroke="#495867" fill="#495867"/>
</g>
</svg>
