<svg xmlns="http://www.w3.org/2000/svg" xmlns:xlink="http://www.w3.org/1999/xlink" viewBox="0 0 60.625 60.625">
  <defs>
    <style>
      .cls-1 {
        fill: #707070;
      }

      .cls-2 {
        clip-path: url(#clip-path);
      }
    </style>
    <clipPath id="clip-path">
      <rect id="Rectangle_10" data-name="Rectangle 10" class="cls-1" width="60.625" height="60.625" transform="translate(87.244 163.244)"/>
    </clipPath>
  </defs>
  <g id="Group_302" data-name="Group 302" transform="translate(-1298.688 -514.687)">
    <g id="Mask_Group_39" data-name="Mask Group 39" class="cls-2" transform="translate(1211.444 351.443)">
      <path id="invoice" class="cls-1" d="M56.44,0c-1.315,0-3.246,1.751-4.03,2.509L50.52,4.363a1.778,1.778,0,0,1-2.438,0L46.164,2.5C44.876,1.26,42.741,0,41.152,0s-3.725,1.26-5.013,2.5L34.216,4.363a1.8,1.8,0,0,1-2.455,0L29.837,2.5C28.58,1.29,26.4,0,24.822,0s-3.758,1.29-5.015,2.5L17.884,4.363a1.8,1.8,0,0,1-2.457,0L13.5,2.5C13.4,2.4,10.848,0,9.305,0,7.545,0,6.874,2.386,6.874,4.429V56.2c0,2.043.67,4.429,2.431,4.429,1.483,0,3.876-2.248,4.137-2.5L15.4,56.262a1.821,1.821,0,0,1,2.475,0L19.8,58.12c1.257,1.214,3.443,2.5,5.018,2.5s3.76-1.291,5.016-2.5l1.925-1.859a1.8,1.8,0,0,1,2.457,0L36.14,58.12c1.257,1.214,3.441,2.5,5.015,2.5s3.758-1.291,5.015-2.5l1.923-1.858a1.8,1.8,0,0,1,2.456,0l1.923,1.858c.968.935,2.731,2.5,3.968,2.5,1.449,0,2.2-1.573,2.2-4.429V4.429C58.641,1.573,57.889,0,56.44,0ZM47.291,45.538H34.557v-5.26H47.291Zm0-12.734H18.5V27.821h28.79Zm0-12.457H18.5v-5.26h28.79Z" transform="translate(84.799 163.244)"/>
    </g>
  </g>
</svg>
