<?xml version="1.0" encoding="iso-8859-1"?>
<!-- Generator: Adobe Illustrator 19.0.0, SVG Export Plug-In . SVG Version: 6.00 Build 0)  -->
<svg xmlns="http://www.w3.org/2000/svg" xmlns:xlink="http://www.w3.org/1999/xlink" version="1.1" id="Capa_1" x="0px" y="0px" viewBox="0 0 219 219" style="enable-background:new 0 0 219 219;" xml:space="preserve" width="512px" height="512px">
<path d="M195.051,0c-4.749,0-11.726,6.327-14.557,9.063l-6.828,6.697c-1.167,1.128-2.715,1.749-4.399,1.749  c-1.685,0-3.243-0.621-4.407-1.745l-6.931-6.717C153.275,4.552,145.564,0,139.823,0c-5.743,0-13.457,4.552-18.11,9.048l-6.946,6.713  c-1.167,1.128-2.742,1.749-4.435,1.749s-3.268-0.621-4.435-1.749l-6.948-6.713C94.409,4.661,86.517,0,80.833,0  S67.257,4.661,62.717,9.048l-6.946,6.713c-1.168,1.128-2.743,1.749-4.437,1.749c-1.693,0-3.269-0.621-4.437-1.749l-6.947-6.713  C39.566,8.679,30.355,0,24.782,0C18.422,0,16,8.619,16,16v187c0,7.381,2.422,16,8.782,16c5.357,0,14-8.122,14.943-9.032l7.069-6.729  c1.167-1.128,2.769-1.749,4.473-1.749c1.703,0,3.295,0.621,4.466,1.753l6.964,6.709C67.236,214.338,75.133,219,80.823,219  c5.688,0,13.582-4.662,18.12-9.047l6.952-6.714c1.167-1.128,2.743-1.749,4.437-1.749s3.27,0.621,4.438,1.749l6.947,6.713  c4.539,4.386,12.431,9.048,18.116,9.048s13.577-4.662,18.116-9.048l6.948-6.713c1.167-1.128,2.742-1.749,4.437-1.749  c1.693,0,3.269,0.621,4.436,1.749l6.948,6.713c3.497,3.379,9.864,9.048,14.333,9.048c5.233,0,7.949-5.683,7.949-16V16  C203,5.683,200.285,0,195.051,0z M162,164.5h-46v-19h46V164.5z M162,118.5H58v-18h104V118.5z M162,73.5H58v-19h104V73.5z" fill="#FFFFFF"/>
<g>
</g>
<g>
</g>
<g>
</g>
<g>
</g>
<g>
</g>
<g>
</g>
<g>
</g>
<g>
</g>
<g>
</g>
<g>
</g>
<g>
</g>
<g>
</g>
<g>
</g>
<g>
</g>
<g>
</g>
</svg>
