<svg height="512pt" viewBox="0 -50 512 511" width="512pt" xmlns="http://www.w3.org/2000/svg"><path d="m283.25 276.5625c-.648438 0-1.308594-.058594-1.949219-.1875-.640625-.132812-1.269531-.320312-1.871093-.570312-.609376-.25-1.1875-.5625-1.730469-.921876-.550781-.367187-1.058594-.789062-1.519531-1.25-.460938-.457031-.878907-.96875-1.238282-1.519531-.359375-.539062-.671875-1.121093-.921875-1.71875-.25-.609375-.4375-1.242187-.570312-1.871093-.128907-.648438-.199219-1.308594-.199219-1.960938 0-.648438.070312-1.308594.199219-1.949219.132812-.640625.320312-1.269531.570312-1.871093.25-.609376.5625-1.1875.921875-1.726563.359375-.550781.777344-1.0625 1.238282-1.523437.460937-.457032.96875-.878907 1.519531-1.238282.542969-.359375 1.121093-.667968 1.730469-.917968.601562-.25 1.230468-.441407 1.871093-.570313 1.289063-.261719 2.609375-.261719 3.910157 0 .628906.128906 1.257812.320313 1.867187.570313.601563.25 1.183594.558593 1.722656.917968.550781.359375 1.058594.78125 1.519531 1.238282.460938.460937.878907.972656 1.25 1.523437.359376.539063.660157 1.117187.910157 1.726563.25.601562.449219 1.230468.570312 1.871093.128907.640625.199219 1.300781.199219 1.949219 0 .652344-.070312 1.3125-.199219 1.960938-.121093.628906-.320312 1.261718-.570312 1.871093-.25.597657-.550781 1.179688-.910157 1.71875-.371093.550781-.789062 1.0625-1.25 1.519531-.460937.460938-.96875.882813-1.519531 1.25-.539062.359376-1.121093.671876-1.722656.921876-.609375.25-1.238281.4375-1.867187.570312-.652344.128906-1.3125.1875-1.960938.1875zm0 0"/><path d="m509.570312 143.867188-106.980468-123.988282c-3.984375-9.40625-12.710938-16.8125-23.332032-19.144531-.703124-.15625-1.425781-.234375-2.148437-.234375h-242.21875c-.722656 0-1.441406.078125-2.148437.234375-10.171876 2.234375-18.1875 8.699219-22.039063 17.074219l-108.289063 126.074218c-1.558593 1.8125-2.414062 4.125-2.414062 6.515626v220.917968c0 5.523438 4.476562 10 10 10h67.285156c5.523438 0 10-4.476562 10-10v-183.039062l20.910156-27.085938v215.433594c0 19.289062 15.6875 34.980469 34.96875 34.980469h225.671876c18.761718 0 34.550781-15.046875 35.945312-34.257813.015625-.242187.023438-.484375.023438-.722656v-213.585938l19.910156 25.289063v182.988281c0 5.523438 4.476562 10 10 10h67.285156c5.523438 0 10-4.476562 10-10v-220.917968c0-2.398438-.863281-4.714844-2.429688-6.53125zm-174.980468-123.367188c3.1875 0 6.050781 1.507812 7.855468 4.136719 1.8125 2.636719 2.191407 5.863281 1.039063 8.847656l-12.105469 31.371094h-19.902344c-3.605468 0-6.929687 1.9375-8.707031 5.078125-1.773437 3.136718-1.71875 6.988281.136719 10.078125l20.824219 34.605469-30.476563 51.9375v-146.054688zm-157.160156 0 41.316406.066406v145.988282l-30.476563-51.9375 20.824219-34.605469c1.855469-3.089844 1.910156-6.941407.136719-10.078125-1.777344-3.136719-5.101563-5.078125-8.707031-5.078125h-19.902344l-12.105469-31.371094c-1.152344-2.984375-.773437-6.210937 1.039063-8.847656 1.808593-2.628907 4.671874-4.136719 7.855468-4.136719zm-49.234376 223.0625h34.578126v25.636719c0 21.15625-14.796876 38.917969-34.578126 43.472656zm-60.910156 117.753906h-47.285156v-23.59375h47.285156zm2.085938-182.558594c-1.351563 1.75-2.085938 3.898438-2.085938 6.109376v132.855468h-47.285156v-163.617187l88.195312-102.683594v77.039063zm58.824218 197.867188v-43.59375c30.875-4.824219 54.578126-31.609375 54.578126-63.832031v-35.636719c0-5.523438-4.480469-10-10-10h-44.578126v-194.34375c0-3.75 3.351563-7.375 7.929688-8.71875h13.335938c-2.21875 6.488281-2.132813 13.628906.398437 20.1875l14.574219 37.769531c1.488281 3.855469 5.195312 6.398438 9.328125 6.398438h9.074219l-14.769532 24.542969c-1.886718 3.140624-1.910156 7.058593-.054687 10.21875l50.734375 86.457031v185.535156h-75.582032c-8.253906 0-14.96875-6.722656-14.96875-14.984375zm240.640626 14.984375h-75.582032v-72.800781c0-5.523438-4.480468-10-10-10-5.523437 0-10 4.476562-10 10v72.800781h-34.507812v-371.109375h34.507812v196.351562c0 5.523438 4.476563 10 10 10 5.519532 0 10-4.476562 10-10v-10.777343l50.734375-86.457031c1.855469-3.160157 1.832031-7.082032-.054687-10.21875l-14.769532-24.542969h9.074219c4.132813 0 7.839844-2.542969 9.328125-6.398438l14.574219-37.769531c2.53125-6.554688 2.617187-13.699219.398437-20.1875h13.332032c4.640625 1.367188 8.269531 5.144531 8.933594 9.363281v104.101563.402344 89.195312h-45.578126c-5.523437 0-10 4.476562-10 10v35.636719c0 32.570312 24.214844 59.585937 55.578126 63.980469v43.042968c-.78125 8.652344-7.738282 15.386719-15.96875 15.386719zm14.96875-148.046875v69.109375c-19.78125-4.554687-34.578126-22.316406-34.578126-43.472656v-25.636719zm21.003906-112.859375v-77.636719l87.191406 101.050782v163.605468h-47.285156v-132.855468c0-2.246094-.753906-4.421876-2.144532-6.183594zm87.191406 230.613281h-47.285156v-23.59375h47.285156zm0 0"/></svg>