<svg xmlns="http://www.w3.org/2000/svg" xmlns:xlink="http://www.w3.org/1999/xlink" viewBox="0 0 125 125">
  <defs>
    <style>
      .cls-1 {
        fill: #dadada;
      }

      .cls-2 {
        clip-path: url(#clip-path);
      }

      .cls-3, .cls-4 {
        fill: #495867;
      }

      .cls-4 {
        stroke: #495867;
        stroke-width: 0.244px;
      }
    </style>
    <clipPath id="clip-path">
      <rect id="Rectangle_15" data-name="Rectangle 15" class="cls-1" width="125" height="125" transform="translate(149 1268)"/>
    </clipPath>
  </defs>
  <g id="Mask_Group_23" data-name="Mask Group 23" class="cls-2" transform="translate(-149 -1268)">
    <g id="contract" transform="translate(165.113 1268)">
      <path id="Path_109" data-name="Path 109" class="cls-3" d="M17.09,19.531a2.441,2.441,0,1,0-2.441-2.441A2.442,2.442,0,0,0,17.09,19.531Zm0,0"/>
      <path id="Path_110" data-name="Path 110" class="cls-3" d="M17.09,34.18a2.441,2.441,0,1,0-2.441-2.441A2.442,2.442,0,0,0,17.09,34.18Zm0,0"/>
      <path id="Path_125" data-name="Path 125" class="cls-3" d="M17.09,34.18a2.441,2.441,0,1,0-2.441-2.441A2.442,2.442,0,0,0,17.09,34.18Zm0,0" transform="translate(0 45)"/>
      <path id="Path_121" data-name="Path 121" class="cls-3" d="M17.09,34.18a2.441,2.441,0,1,0-2.441-2.441A2.442,2.442,0,0,0,17.09,34.18Zm0,0" transform="translate(0 16)"/>
      <path id="Path_124" data-name="Path 124" class="cls-3" d="M17.09,34.18a2.441,2.441,0,1,0-2.441-2.441A2.442,2.442,0,0,0,17.09,34.18Zm0,0" transform="translate(0 60)"/>
      <path id="Path_122" data-name="Path 122" class="cls-3" d="M17.09,34.18a2.441,2.441,0,1,0-2.441-2.441A2.442,2.442,0,0,0,17.09,34.18Zm0,0" transform="translate(0 31)"/>
      <path id="Path_123" data-name="Path 123" class="cls-3" d="M17.09,34.18a2.441,2.441,0,1,0-2.441-2.441A2.442,2.442,0,0,0,17.09,34.18Zm0,0" transform="translate(0 75)"/>
      <path id="Path_111" data-name="Path 111" class="cls-3" d="M7.324,125H85.449a7.332,7.332,0,0,0,7.324-7.324V31.738a2.456,2.456,0,0,0-.715-1.726L62.761.715A2.46,2.46,0,0,0,61.035,0H7.324A7.332,7.332,0,0,0,0,7.324V117.676A7.332,7.332,0,0,0,7.324,125ZM63.477,8.336,84.438,29.3H63.477ZM4.883,7.324A2.444,2.444,0,0,1,7.324,4.883h51.27V31.738a2.441,2.441,0,0,0,2.441,2.441H87.891v83.5a2.444,2.444,0,0,1-2.441,2.441H7.324a2.444,2.444,0,0,1-2.441-2.441Zm0,0"/>
      <path id="Path_112" data-name="Path 112" class="cls-3" d="M16.714,50.293H66.294a2.476,2.476,0,0,0,0-4.883H16.714a2.476,2.476,0,0,0,0,4.883Zm0,0" transform="translate(9.766)"/>
      <path id="Path_113" data-name="Path 113" class="cls-3" d="M16.714,64.941H66.294a2.476,2.476,0,0,0,0-4.883H16.714a2.476,2.476,0,0,0,0,4.883Zm0,0" transform="translate(9.766)"/>
      <path id="Path_114" data-name="Path 114" class="cls-3" d="M26.855,19.531H46.387a2.441,2.441,0,0,0,0-4.883H26.855a2.441,2.441,0,0,0,0,4.883Zm0,0"/>
      <path id="Path_115" data-name="Path 115" class="cls-3" d="M26.855,34.18H46.387a2.441,2.441,0,0,0,0-4.883H26.855a2.441,2.441,0,0,0,0,4.883Zm0,0"/>
      <path id="Path_117" data-name="Path 117" class="cls-3" d="M16.327,79.59h23.5c.927,0,1.678-1.093,1.678-2.441s-.751-2.441-1.678-2.441h-23.5c-.927,0-1.678,1.093-1.678,2.441S15.4,79.59,16.327,79.59Zm0,0" transform="translate(9.766)"/>
      <path id="Path_118" data-name="Path 118" class="cls-3" d="M16.327,94.238h23.5c.927,0,1.678-1.093,1.678-2.441s-.751-2.441-1.678-2.441h-23.5c-.927,0-1.678,1.093-1.678,2.441S15.4,94.238,16.327,94.238Zm0,0" transform="translate(9.766)"/>
      <path id="Path_119" data-name="Path 119" class="cls-3" d="M16.327,108.887h23.5c.927,0,1.678-1.093,1.678-2.441S40.753,104,39.825,104h-23.5c-.927,0-1.678,1.093-1.678,2.441S15.4,108.887,16.327,108.887Zm0,0" transform="translate(9.766)"/>
      <path id="Path_120" data-name="Path 120" class="cls-4" d="M58.548,52.686H52.783a2.547,2.547,0,0,0-1.715,4.374L65.507,70.7a2.513,2.513,0,0,0,1.715.7,2.473,2.473,0,0,0,1.714-4.275l-9.915-9.319a11.175,11.175,0,0,0,10.388-8.6h3.553a2.485,2.485,0,0,0,0-4.97H69.409a9.118,9.118,0,0,0-1.591-3.728h5.145a2.485,2.485,0,1,0,0-4.97H52.783a2.485,2.485,0,1,0,0,4.97h5.765a6.1,6.1,0,0,1,5.642,3.728H52.758a2.485,2.485,0,1,0,0,4.97H64.19A6.262,6.262,0,0,1,58.548,52.686Zm0,0" transform="translate(7.573 39.122)"/>
    </g>
  </g>
</svg>
