<svg xmlns="http://www.w3.org/2000/svg" xmlns:xlink="http://www.w3.org/1999/xlink" viewBox="0 0 170 170">
  <defs>
    <style>
      .cls-1, .cls-3, .cls-6 {
        fill: #fff;
      }

      .cls-2 {
        clip-path: url(#clip-path);
      }

      .cls-4 {
        fill: none;
        stroke: #fff;
        stroke-linecap: round;
        stroke-width: 9px;
      }

      .cls-5, .cls-6 {
        stroke: none;
      }
    </style>
    <clipPath id="clip-path">
      <rect id="Rectangle_3" data-name="Rectangle 3" class="cls-1" width="170" height="170"/>
    </clipPath>
  </defs>
  <g id="Mask_Group_7" data-name="Mask Group 7" class="cls-2">
    <g id="friendly" transform="translate(83.287 184.869) rotate(-135)">
      <g id="Path_18" data-name="Path 18" class="cls-3" transform="translate(0 37.868)">
        <path class="cls-5" d="M 40.67362976074219 73.67727661132813 C 39.79063034057617 73.67727661132813 38.96046829223633 73.33341217041016 38.33607864379883 72.70902252197266 L 29.50049018859863 63.87342834472656 C 24.69320869445801 59.06644821166992 20.93866920471191 53.44316864013672 18.34117889404297 47.15982055664063 C 15.74395942687988 40.87685775756836 14.43194961547852 34.24377059936523 14.44156932830811 27.44479942321777 L 14.45334529876709 19.12902450561523 L 0.4682095646858215 5.143889427185059 C -0.8206004500389099 3.854429244995117 -0.8205604553222656 1.756969213485718 0.4682095646858215 0.4682092368602753 C 1.092919588088989 -0.1561807692050934 1.923219561576843 -0.5000007748603821 2.806259632110596 -0.5000007748603821 C 3.68934965133667 -0.5000007748603821 4.519539356231689 -0.1561507731676102 5.143889427185059 0.4682092368602753 L 20.0990104675293 15.42359924316406 C 20.71562957763672 16.03990936279297 21.06859016418457 16.8936595916748 21.06727981567383 17.76583862304688 L 21.05352973937988 27.45351982116699 C 21.0366096496582 39.4451904296875 25.69688034057617 50.7187385559082 34.17588806152344 59.19746780395508 L 43.01119995117188 68.03334808349609 C 43.63568878173828 68.65782928466797 43.97961044311523 69.48812866210938 43.97961044311523 70.37129211425781 C 43.97961044311523 71.25447082519531 43.63566970825195 72.08470916748047 43.01115036010742 72.70906829833984 C 42.38713836669922 73.33338165283203 41.55694961547852 73.67727661132813 40.67362976074219 73.67727661132813 Z"/>
        <path class="cls-6" d="M 40.67362976074219 73.17727661132813 C 41.39163970947266 73.17727661132813 42.10993957519531 72.9034423828125 42.65763854980469 72.35546875 C 43.75360107421875 71.25978851318359 43.75360107421875 69.48284912109375 42.65763854980469 68.38688659667969 L 33.82233810424805 59.55102920532227 C 25.24853897094727 50.97750854492188 20.53641891479492 39.57796096801758 20.55352973937988 27.45280838012695 L 20.56727981567383 17.76508903503418 C 20.56839942932129 17.01958847045898 20.27265930175781 16.3040885925293 19.74544906616211 15.77714920043945 L 4.790339469909668 0.8217592239379883 C 4.242499351501465 0.2739192247390747 3.524414539337158 -7.7026368217048e-07 2.806259632110596 -7.7026368217048e-07 C 2.088104486465454 -7.7026368217048e-07 1.369879603385925 0.2739192247390747 0.8217595815658569 0.8217592239379883 C -0.2739204466342926 1.917439222335815 -0.2739204466342926 3.694099187850952 0.8217595815658569 4.79033899307251 L 14.95363998413086 18.92221832275391 L 14.94156932830811 27.44550895690918 C 14.93203926086426 34.17811965942383 16.23114013671875 40.7465705871582 18.80324935913086 46.96879959106445 C 21.3753604888916 53.19075012207031 25.09337043762207 58.75949859619141 29.85404014587402 63.51987838745117 L 38.68962860107422 72.35546875 C 39.23760986328125 72.90345001220703 39.95561981201172 73.17727661132813 40.67362976074219 73.17727661132813 M 40.67362976074219 74.17727661132813 C 39.65707015991211 74.17727661132813 38.70135116577148 73.78140258789063 37.98252105712891 73.06257629394531 L 29.14692878723145 64.22698974609375 C 24.29290962219238 59.37326049804688 20.50185966491699 53.69528961181641 17.87909889221191 47.35083770751953 C 15.25662994384766 41.00677108764648 13.93184947967529 34.30917739868164 13.94156932830811 27.44408988952637 L 13.95305156707764 19.33585166931152 L 0.1146495565772057 5.497449398040771 C -1.369090437889099 4.012949466705322 -1.369010448455811 1.598319172859192 0.1146495565772057 0.1146492287516594 C 0.8338795304298401 -0.6042107939720154 1.789709568023682 -1.000000715255737 2.806259632110596 -1.000000715255737 C 3.822899580001831 -1.000000715255737 4.77864933013916 -0.6041407585144043 5.497449398040771 0.1146492287516594 L 20.45256042480469 15.07004928588867 C 21.16242027282715 15.77953910827637 21.56879043579102 16.76245880126953 21.56727981567383 17.7665901184082 L 21.55352973937988 27.4542293548584 C 21.53680038452148 39.31206893920898 26.14505958557129 50.45980834960938 34.52943801879883 58.84391021728516 L 43.36476898193359 67.6798095703125 C 44.08367919921875 68.39871215820313 44.47961044311523 69.35456848144531 44.47961044311523 70.37129211425781 C 44.47961044311523 71.38803863525391 44.08364868164063 72.34385681152344 43.36465835571289 73.06266784667969 C 42.64633941650391 73.78134155273438 41.69054794311523 74.17727661132813 40.67362976074219 74.17727661132813 Z"/>
      </g>
      <g id="Path_19" data-name="Path 19" class="cls-3" transform="translate(46.35 113.916)">
        <path class="cls-5" d="M 2.805847644805908 6.111679553985596 C 1.935997605323792 6.111679553985596 1.084087610244751 5.758659362792969 0.4685576260089874 5.143139362335205 C -0.1469823718070984 4.527589321136475 -0.500002384185791 3.675679445266724 -0.500002384185791 2.805829524993896 C -0.500002384185791 1.935989499092102 -0.1469723731279373 1.084089517593384 0.4685576260089874 0.4685595333576202 C 1.08045768737793 -0.1466304659843445 1.932707667350769 -0.5000004768371582 2.805847644805908 -0.5000004768371582 C 3.678977727890015 -0.5000004768371582 4.531217575073242 -0.1466304659843445 5.144067764282227 0.4694995284080505 C 5.758687496185303 1.084469556808472 6.111677646636963 1.936329483985901 6.111677646636963 2.805829524993896 C 6.111677646636963 3.675679445266724 5.758657455444336 4.527589321136475 5.14312744140625 5.143129348754883 C 4.527587413787842 5.758659362792969 3.675677537918091 6.111679553985596 2.805847644805908 6.111679553985596 Z"/>
        <path class="cls-6" d="M 2.805847644805908 -4.76837158203125e-07 C 2.06789755821228 -4.76837158203125e-07 1.343997478485107 0.297419548034668 0.8221077919006348 0.8221096992492676 C 0.3002276420593262 1.343989372253418 -2.384185791015625e-06 2.065089464187622 -2.384185791015625e-06 2.805829524993896 C -2.384185791015625e-06 3.543779611587524 0.3002276420593262 4.26768970489502 0.8221077919006348 4.789579391479492 C 1.343997478485107 5.311459541320801 2.06789755821228 5.611679553985596 2.805847644805908 5.611679553985596 C 3.543777704238892 5.611679553985596 4.267677783966064 5.311459541320801 4.789567470550537 4.789579391479492 C 5.311447620391846 4.26768970489502 5.611677646636963 3.543779611587524 5.611677646636963 2.805829524993896 C 5.611677646636963 2.065379619598389 5.311447620391846 1.344279766082764 4.789567470550537 0.8221096992492676 C 4.267677783966064 0.297419548034668 3.543777704238892 -4.76837158203125e-07 2.805847644805908 -4.76837158203125e-07 M 2.805847644805908 -1.000000476837158 C 3.811087608337402 -1.000000476837158 4.792547702789307 -0.5929102897644043 5.498567581176758 0.1168994903564453 C 6.205347537994385 0.8240694999694824 6.611677646636963 1.804769515991211 6.611677646636963 2.805829524993896 C 6.611677646636963 3.807289600372314 6.205277442932129 4.788069725036621 5.496677398681641 5.496679306030273 C 4.788067817687988 6.205279350280762 3.807297706604004 6.611679553985596 2.805847644805908 6.611679553985596 C 1.80438756942749 6.611679553985596 0.8236074447631836 6.205279350280762 0.1150074005126953 5.496689319610596 C -0.593602180480957 4.788069725036621 -1.000002384185791 3.807289600372314 -1.000002384185791 2.805829524993896 C -1.000002384185791 1.804369449615479 -0.593602180480957 0.8235993385314941 0.1149978637695313 0.1149997711181641 C 0.8191275596618652 -0.5929102897644043 1.80058765411377 -1.000000476837158 2.805847644805908 -1.000000476837158 Z"/>
      </g>
      <g id="Path_20" data-name="Path 20" class="cls-3" transform="translate(37.867)">
        <path class="cls-5" d="M 39.49097061157227 144.1587982177734 C 35.98188018798828 144.1587982177734 32.68589782714844 142.7959747314453 30.21017074584961 140.3213806152344 L 16.00104331970215 126.1122360229492 C 14.71224308013916 124.8227844238281 14.71227931976318 122.7253112792969 16.00104331970215 121.4365615844727 C 16.62573432922363 120.8121643066406 17.4560432434082 120.4683609008789 18.33907890319824 120.4683609008789 C 19.22216987609863 120.4683609008789 20.05235290527344 120.8122024536133 20.67671585083008 121.4365463256836 L 34.8857536315918 135.6455993652344 C 36.11357116699219 136.8736572265625 37.74877166748047 137.5498962402344 39.49016952514648 137.5497589111328 C 41.23182678222656 137.5496368408203 42.86709976196289 136.8733978271484 44.09473419189453 135.6456146240234 C 45.32458877563477 134.4157562255859 46.00189971923828 132.7804718017578 46.00189971923828 131.0409698486328 C 46.00189971923828 129.5244903564453 45.49941635131836 128.1065673828125 44.54859161376953 126.9389495849609 L 30.55322456359863 112.943603515625 C 29.26435279846191 111.6544189453125 29.26438903808594 109.5570526123047 30.55320739746094 108.268196105957 C 31.17793464660645 107.643798828125 32.00824356079102 107.3000030517578 32.89128112792969 107.3000030517578 C 33.77437210083008 107.3000030517578 34.60455322265625 107.6438369750977 35.22889709472656 108.268196105957 L 37.37691116333008 110.4159088134766 C 37.51158905029297 110.5171432495117 37.62241744995117 110.6123199462891 37.72357177734375 110.713493347168 L 48.77098846435547 121.7609100341797 C 48.96502685546875 121.954948425293 49.16067123413086 122.1661148071289 49.38579559326172 122.4245300292969 L 56.0004997253418 129.0392761230469 C 57.23055267333984 130.269287109375 58.8658447265625 130.9466857910156 60.60517120361328 130.9466857910156 C 62.34468078613281 130.9466857910156 63.9799690246582 130.2693786621094 65.20978546142578 129.03955078125 C 66.43982696533203 127.8095092773438 67.11722564697266 126.1742172241211 67.11722564697266 124.4348907470703 C 67.11722564697266 122.918586730957 66.61494445800781 121.5009536743164 65.66448211669922 120.3337249755859 L 44.41435241699219 99.08360290527344 C 43.12553405761719 97.79416656494141 43.12557220458984 95.69669342041016 44.41435241699219 94.40792846679688 C 45.03904342651367 93.78352355957031 45.86935424804688 93.43972778320313 46.75238800048828 93.43972778320313 C 47.63547897338867 93.43972778320313 48.46566009521484 93.78356170654297 49.09002685546875 94.40790557861328 L 69.88535308837891 115.154167175293 C 70.08013153076172 115.3489227294922 70.27702331542969 115.5613632202148 70.50442504882813 115.8220672607422 L 76.41804504394531 121.7356567382813 C 77.64788055419922 122.9654922485352 79.28317260742188 123.6427993774414 81.02268218994141 123.6427993774414 C 82.76219177246094 123.6427993774414 84.39747619628906 122.9654922485352 85.62733459472656 121.7356567382813 C 86.85518646240234 120.5079116821289 87.5313720703125 118.872673034668 87.53138732910156 117.1311416625977 C 87.53138732910156 115.3896179199219 86.85517120361328 113.7543792724609 85.62733459472656 112.5266571044922 L 79.70995330810547 106.609260559082 C 79.45216369628906 106.3849639892578 79.24095153808594 106.1893997192383 79.04622650146484 105.9946517944336 L 58.27489852905273 85.22332763671875 C 56.98609924316406 83.93385314941406 56.98613357543945 81.83640289306641 58.27489852905273 80.54765319824219 C 58.89964294433594 79.92337799072266 59.72993469238281 79.57965087890625 60.61295318603516 79.57965087890625 C 61.49600601196289 79.57965087890625 62.326171875 79.92341613769531 62.95051574707031 80.54759979248047 L 84.22042846679688 101.768424987793 C 85.37324523925781 102.7063369750977 86.83050537109375 103.2225112915039 88.32678985595703 103.2224884033203 C 90.06815338134766 103.2224578857422 91.70327758789063 102.5463485717773 92.93093109130859 101.3187103271484 C 94.15876770019531 100.0909652709961 94.83499145507813 98.45572662353516 94.83499145507813 96.71420288085938 C 94.83499145507813 94.97267150878906 94.15879058837891 93.33743286132813 92.93095397949219 92.10971069335938 L 57.24122619628906 56.41999816894531 C 55.51498794555664 54.69345474243164 55.35569763183594 52.04632568359375 56.8624267578125 50.12569046020508 C 57.77655410766602 48.96047210693359 59.13235092163086 48.29216384887695 60.58217239379883 48.29216384887695 C 61.44809722900391 48.29216384887695 62.30682373046875 48.5352897644043 63.06553268432617 48.99523544311523 L 72.60484313964844 54.77807235717773 C 73.65151977539063 55.41278076171875 74.85243988037109 55.74823760986328 76.07785797119141 55.74816513061523 C 78.28251647949219 55.74805450439453 80.34842681884766 54.67725372314453 81.60413360595703 52.88378143310547 C 82.64960479736328 51.39065551757813 83.04111480712891 49.58148956298828 82.70655059814453 47.78952789306641 C 82.37200927734375 45.99752807617188 81.35404205322266 44.45150756835938 79.84014892578125 43.43627166748047 L 57.77113342285156 28.63743591308594 C 50.36484146118164 23.67103576660156 41.73700714111328 21.04594612121582 32.82036972045898 21.04594612121582 L 32.75442504882813 21.04594612121582 L 17.76578903198242 21.0672721862793 C 16.8778247833252 21.0672721862793 16.04764366149902 20.72336387634277 15.42351627349854 20.09890937805176 L 0.4682251214981079 5.143908977508545 C -0.8206112384796143 3.854436159133911 -0.8205567002296448 1.756963491439819 0.4682251214981079 0.4681998491287231 C 1.092916011810303 -0.1561819612979889 1.923206925392151 -0.4999819695949554 2.806261539459229 -0.4999819695949554 C 3.689352512359619 -0.4999819695949554 4.519534111022949 -0.1561456024646759 5.143879890441895 0.4682180285453796 L 19.12904167175293 14.45363235473633 L 32.74642562866211 14.43429088592529 L 32.82122421264648 14.43429088592529 C 43.05398941040039 14.43429088592529 52.955078125 17.44680023193359 61.45407867431641 23.14612770080566 L 83.52284240722656 37.94550704956055 C 86.524658203125 39.95829010009766 88.54322814941406 43.02341842651367 89.20669555664063 46.57623672485352 C 89.87020874023438 50.12887191772461 89.09397125244141 53.71578216552734 87.02093505859375 56.67621994018555 C 84.53058624267578 60.23296356201172 80.43566131591797 62.35639953613281 76.06704711914063 62.35639953613281 C 74.62348937988281 62.35639953613281 73.19557952880859 62.12129211425781 71.83908843994141 61.66644287109375 L 97.60744476318359 87.43456268310547 C 100.08251953125 89.90963745117188 101.445426940918 93.20530700683594 101.4451141357422 96.71449279785156 C 101.4448089599609 100.2239074707031 100.0810775756836 103.5195083618164 97.60511779785156 105.9941787719727 C 95.94401550292969 107.6552810668945 93.89279174804688 108.8265151977539 91.63388824462891 109.4107055664063 C 93.3775634765625 111.8051071166992 94.25846862792969 114.7252044677734 94.12578582763672 117.719108581543 C 93.980224609375 121.0037078857422 92.62210083007813 124.0905456542969 90.30160522460938 126.4110336303711 C 87.82689666748047 128.8860778808594 84.53117370605469 130.2491455078125 81.02156829833984 130.2491455078125 C 78.24508666992188 130.2491455078125 75.53607177734375 129.3660430908203 73.30812835693359 127.7479934692383 C 72.72520446777344 129.9982147216797 71.55162048339844 132.0479888916016 69.8846435546875 133.7149505615234 C 67.40615081787109 136.1937561035156 64.11053466796875 137.5589141845703 60.60489654541016 137.5589141845703 C 57.48741912841797 137.5589141845703 54.51853942871094 136.4686737060547 52.15414047241211 134.4718475341797 C 51.55933380126953 136.683349609375 50.40032958984375 138.6913909912109 48.77102661132813 140.3207092285156 C 46.29629898071289 142.7957305908203 43.00057220458984 144.1587982177734 39.49097061157227 144.1587982177734 Z"/>
        <path class="cls-6" d="M 39.49097061157227 143.6587982177734 C 42.72356796264648 143.6587982177734 45.95647048950195 142.4284515380859 48.41744995117188 139.9671630859375 C 50.24208831787109 138.1425323486328 51.3885498046875 135.892822265625 51.86048889160156 133.5342407226563 C 54.22328948974609 135.8069610595703 57.31728744506836 137.0589141845703 60.60488891601563 137.0589141845703 C 63.97694778442383 137.0589141845703 67.14698791503906 135.7458038330078 69.53110504150391 133.3613891601563 C 71.33020782470703 131.5623016357422 72.51848602294922 129.3156433105469 72.99404907226563 126.8725967407227 C 75.31646728515625 128.7892608642578 78.16886901855469 129.7491607666016 81.02156829833984 129.7491607666016 C 84.25418853759766 129.7491607666016 87.48709106445313 128.5187835693359 89.94806671142578 126.0574951171875 C 94.58303070068359 121.4225387573242 94.85182952880859 114.0513153076172 90.757568359375 109.0967788696289 C 93.13858795166016 108.6326751708984 95.41102600097656 107.4811553955078 97.25164794921875 105.6405334472656 C 102.1758880615234 100.7188339233398 102.1758880615234 92.71011352539063 97.25390625 87.78811645507813 L 69.51988983154297 60.05439758300781 C 71.56327056884766 61.27254867553711 73.82642364501953 61.85639572143555 76.06702423095703 61.85639572143555 C 80.13507080078125 61.85639572143555 84.13027191162109 59.93293380737305 86.61136627197266 56.3894157409668 C 88.60660552978516 53.54007720947266 89.35379028320313 50.08721542358398 88.71518707275391 46.66803741455078 C 88.07656860351563 43.24827575683594 86.13381195068359 40.2982177734375 83.24436950683594 38.36077499389648 L 61.17559051513672 23.5613956451416 C 52.75750732421875 17.91633605957031 42.95504760742188 14.93429660797119 32.82122802734375 14.93429660797119 C 32.79708862304688 14.93429660797119 32.77126693725586 14.93429660797119 32.74712753295898 14.93429660797119 L 18.92222785949707 14.95393657684326 L 4.790328979492188 0.8217562437057495 C 4.242488861083984 0.2739162147045135 3.524403810501099 -3.781738314501126e-06 2.806251287460327 -3.781738314501126e-06 C 2.088098764419556 -3.781738314501126e-06 1.369878768920898 0.2739162147045135 0.8217687606811523 0.8217562437057495 C -0.2739112377166748 1.917436242103577 -0.2739112377166748 3.694096326828003 0.8217687606811523 4.790336132049561 L 15.77714920043945 19.74545669555664 C 16.30324935913086 20.27181625366211 17.01704788208008 20.56727600097656 17.76114845275879 20.56727600097656 C 17.76228904724121 20.56727600097656 17.7636890411377 20.56727600097656 17.76508903503418 20.56727600097656 L 32.75442886352539 20.54595565795898 C 32.77658843994141 20.54595565795898 32.79821014404297 20.54595565795898 32.82036972045898 20.54595565795898 C 41.83664703369141 20.54595565795898 50.55970764160156 23.19971656799316 58.04961013793945 28.22217559814453 L 80.11865234375 43.02099609375 C 81.74491119384766 44.11161804199219 82.83863067626953 45.77239608764648 83.19805145263672 47.69775772094727 C 83.55748748779297 49.62285614013672 83.13688659667969 51.56645584106445 82.01371002197266 53.17055511474609 C 80.61712646484375 55.16521453857422 78.36759185791016 56.24803924560547 76.07787322998047 56.24816513061523 C 74.79917907714844 56.24823379516602 73.50821685791016 55.91064453125 72.34562683105469 55.20563507080078 L 62.80632781982422 49.42279434204102 C 62.10519409179688 48.99775314331055 61.33806991577148 48.79216766357422 60.58216857910156 48.79216766357422 C 59.32462692260742 48.79216766357422 58.0978889465332 49.36091613769531 57.25582885742188 50.43429565429688 C 55.90762710571289 52.15287780761719 56.05016708374023 54.52155685424805 57.59476852416992 56.06645584106445 L 93.28449249267578 91.75615692138672 C 96.01847076416016 94.48987579345703 96.01847076416016 98.93851470947266 93.28449249267578 101.6722564697266 C 91.91761779785156 103.0391159057617 90.12215423583984 103.7224578857422 88.32678985595703 103.7224807739258 C 86.74922943115234 103.7225112915039 85.17178344726563 103.194953918457 83.88491058349609 102.1399765014648 L 62.59700775146484 80.90119934082031 C 62.04917907714844 80.35349273681641 61.33109283447266 80.07964324951172 60.61293792724609 80.07964324951172 C 59.89478302001953 80.07964324951172 59.17655944824219 80.35349273681641 58.62844848632813 80.90119934082031 C 57.53276824951172 81.99687957763672 57.53276824951172 83.77351379394531 58.62844848632813 84.86977386474609 L 79.39976501464844 105.64111328125 C 79.61077117919922 105.8521194458008 79.82908630371094 106.0504760742188 80.051025390625 106.2432327270508 L 85.98086547851563 112.173095703125 C 88.71488952636719 114.9068374633789 88.71488952636719 119.3554763793945 85.98086547851563 122.0891952514648 C 84.65650939941406 123.4135589599609 82.89586639404297 124.1427993774414 81.02268981933594 124.1427993774414 C 79.14950561523438 124.1427993774414 77.38884735107422 123.4135589599609 76.06449127197266 122.0891952514648 L 70.1385498046875 116.1632995605469 C 69.94383239746094 115.9396591186523 69.74378967285156 115.7196731567383 69.5322265625 115.5081329345703 L 48.73646926879883 94.761474609375 C 48.18862915039063 94.21363830566406 47.47054290771484 93.93971252441406 46.75238800048828 93.93971252441406 C 46.03423309326172 93.93971252441406 45.31600952148438 94.21363830566406 44.76788711547852 94.761474609375 C 43.67220687866211 95.85715484619141 43.67220687866211 97.63381958007813 44.76788711547852 98.73005676269531 L 66.03586578369141 119.9980392456055 C 67.06028747558594 121.2468948364258 67.61722564697266 122.7979736328125 67.61722564697266 124.4348983764648 C 67.61722564697266 126.3077926635742 66.88771057128906 128.0687408447266 65.56334686279297 129.3930969238281 C 64.23900604248047 130.7174530029297 62.47832870483398 131.4467010498047 60.60516738891602 131.4467010498047 C 58.73198699951172 131.4467010498047 56.97132873535156 130.7171630859375 55.64694976806641 129.392822265625 L 49.01986694335938 122.7656936645508 C 48.82708740234375 122.5440368652344 48.62844848632813 122.3254547119141 48.41744995117188 122.1144561767578 L 37.37002944946289 111.0670394897461 C 37.26902770996094 110.9660339355469 37.16070938110352 110.8776550292969 37.04904937744141 110.7951583862305 L 34.87537002563477 108.6217575073242 C 34.32752990722656 108.0739135742188 33.60944366455078 107.7999954223633 32.89128494262695 107.7999954223633 C 32.17313003540039 107.7999954223633 31.45489883422852 108.0739135742188 30.90676879882813 108.6217575073242 C 29.81110954284668 109.7174377441406 29.81110954284668 111.4940948486328 30.90676879882813 112.5900573730469 L 44.91996765136719 126.6032333374023 C 45.94466781616211 127.8523941040039 46.50190734863281 129.4037628173828 46.50190734863281 131.0409698486328 C 46.50190734863281 132.9138488769531 45.77266693115234 134.6748199462891 44.44832992553711 135.9991607666016 C 43.08148574829102 137.3661346435547 41.28557586669922 138.0496368408203 39.49020004272461 138.0497741699219 C 37.69438171386719 138.0498962402344 35.89909744262695 137.3663177490234 34.53220748901367 135.9991607666016 L 20.32316970825195 121.7901153564453 C 19.77532958984375 121.2422790527344 19.05724334716797 120.9683532714844 18.33908843994141 120.9683532714844 C 17.62093353271484 120.9683532714844 16.90270805358887 121.2422790527344 16.35458946228027 121.7901153564453 C 15.25890922546387 122.8857955932617 15.25890922546387 124.6624526977539 16.35458946228027 125.7586975097656 L 30.56362915039063 139.9677429199219 C 33.02546691894531 142.4284515380859 36.25836944580078 143.6587982177734 39.49097061157227 143.6587982177734 M 39.49097061157227 144.6587982177734 C 35.84836959838867 144.6587982177734 32.42684936523438 143.2440032958984 29.856689453125 140.6750030517578 L 15.64748859405518 126.4657974243164 C 14.1637487411499 124.9812927246094 14.16382884979248 122.5666732788086 15.64748859405518 121.0830154418945 C 16.36670875549316 120.3641586303711 17.32254791259766 119.9683532714844 18.33908843994141 119.9683532714844 C 19.35572814941406 119.9683532714844 20.31148910522461 120.3642196655273 21.03026962280273 121.0830154418945 L 35.23930740356445 135.2920532226563 C 36.37270736694336 136.4256744384766 37.88230895996094 137.0498809814453 39.49015045166016 137.0497741699219 C 41.09824752807617 137.0496520996094 42.60796737670898 136.4254150390625 43.74118804931641 135.2920837402344 C 44.87660980224609 134.1566619873047 45.50190734863281 132.6469421386719 45.50190734863281 131.0409698486328 C 45.50190734863281 129.6492919921875 45.04389572143555 128.3479309082031 44.1767463684082 127.2742156982422 L 30.19966888427734 113.2971572875977 C 28.71586799621582 111.8129577636719 28.71590805053711 109.3984375 30.19964790344238 107.9146575927734 C 30.9189281463623 107.1957778930664 31.87474822998047 106.7999954223633 32.89128875732422 106.7999954223633 C 33.90792846679688 106.7999954223633 34.86368942260742 107.1958541870117 35.58246994018555 107.9146575927734 L 37.70639419555664 110.0382919311523 C 37.84640884399414 110.1453018188477 37.96818161010742 110.2509918212891 38.07712936401367 110.3599395751953 L 49.12454986572266 121.407356262207 C 49.3233642578125 121.6061477661133 49.52314376831055 121.8214721679688 49.75143051147461 122.0830612182617 L 56.35404968261719 128.6857147216797 C 57.48966979980469 129.8212890625 58.99942779541016 130.4467010498047 60.60516738891602 130.4467010498047 C 62.21112823486328 130.4467010498047 63.72084808349609 129.8213958740234 64.85623168945313 128.6859893798828 C 65.99182891845703 127.5503997802734 66.61722564697266 126.040657043457 66.61722564697266 124.4348983764648 C 66.61722564697266 123.0433502197266 66.15933990478516 121.7421875 65.29254150390625 120.6689071655273 L 44.06078720092773 99.43715667724609 C 42.57704925537109 97.95265960693359 42.57712936401367 95.53803253173828 44.06078720092773 94.05437469482422 C 44.78001022338867 93.33551788330078 45.73584747314453 92.93971252441406 46.75238800048828 92.93971252441406 C 47.76902770996094 92.93971252441406 48.72478866577148 93.33557891845703 49.44356918334961 94.05437469482422 L 70.23851013183594 114.8001937866211 C 70.43853759765625 115.0002288818359 70.63951110839844 115.2167358398438 70.86981201171875 115.480354309082 L 76.77159118652344 121.3820953369141 C 77.90700531005859 122.5174942016602 79.41672515869141 123.1427993774414 81.02268981933594 123.1427993774414 C 82.62863159179688 123.1427993774414 84.13835144042969 122.5174942016602 85.27376556396484 121.3820953369141 C 86.40718841552734 120.248779296875 87.03138732910156 118.7391128540039 87.03138732910156 117.1311569213867 C 87.03138732910156 115.523193359375 86.40718841552734 114.0135192871094 85.27378845214844 112.8802337646484 L 79.36864471435547 106.9750518798828 C 79.10761260986328 106.7475204467773 78.89219665527344 106.5477447509766 78.69266510009766 106.3482131958008 L 57.92134857177734 85.57687377929688 C 56.4376106262207 84.09235382080078 56.43768692016602 81.677734375 57.92134857177734 80.19409942626953 C 58.64064788818359 79.47533416748047 59.5964469909668 79.07965850830078 60.61294937133789 79.07965850830078 C 61.62957000732422 79.07965850830078 62.58526992797852 79.47541809082031 63.30402755737305 80.19401550292969 L 84.55525970458984 101.3962097167969 C 85.61609649658203 102.2518157958984 86.95355987548828 102.7225189208984 88.32676696777344 102.7224731445313 C 89.93458557128906 102.7224578857422 91.44414520263672 102.0983581542969 92.577392578125 100.9651336669922 C 93.71079254150391 99.83183288574219 94.33496856689453 98.32215881347656 94.33496856689453 96.71419525146484 C 94.33496856689453 95.10623931884766 93.71079254150391 93.59657287597656 92.57740783691406 92.46329498291016 L 56.88766860961914 56.77355575561523 C 54.9798469543457 54.86537551879883 54.80381011962891 51.93977737426758 56.46904754638672 49.81707763671875 C 57.47856903076172 48.53021621704102 58.97774887084961 47.79217529296875 60.58216857910156 47.79217529296875 C 61.53948974609375 47.79217529296875 62.48785018920898 48.06033706665039 63.32472991943359 48.56765747070313 L 72.86402893066406 54.35049438476563 C 73.83258819580078 54.9378547668457 74.94387054443359 55.24823760986328 76.07781219482422 55.2481575012207 C 78.1195068359375 55.24805450439453 80.03231048583984 54.2569580078125 81.19452667236328 52.59701538085938 C 82.16233062744141 51.21481704711914 82.52474975585938 49.54007720947266 82.21502685546875 47.88129806518555 C 81.90536499023438 46.22245788574219 80.96305084228516 44.79133605957031 79.56166839599609 43.85151672363281 L 57.49266815185547 29.05273628234863 C 50.16902923583984 24.14175605773926 41.63748931884766 21.54595565795898 32.82036972045898 21.54595565795898 L 32.75442886352539 21.54595565795898 L 17.76650810241699 21.56727600097656 L 17.76580810546875 21.56727600097656 L 17.76114845275879 21.56727600097656 C 16.74424934387207 21.56727600097656 15.78844833374023 21.17133712768555 15.06986904144287 20.45239639282227 L 0.1146687716245651 5.497456073760986 C -1.369071245193481 4.012936115264893 -1.368991255760193 1.598316192626953 0.1146687716245651 0.1146562173962593 C 0.8338887691497803 -0.6042037606239319 1.789708733558655 -1.000003814697266 2.806248664855957 -1.000003814697266 C 3.822888851165771 -1.000003814697266 4.778648853302002 -0.6041437983512878 5.497428894042969 0.1146562173962593 L 19.33586502075195 13.95334625244141 L 32.74570846557617 13.93429660797119 L 32.82122802734375 13.93429660797119 C 43.15350723266602 13.93429660797119 53.1508903503418 16.97609710693359 61.73254776000977 22.73085594177246 L 83.80133056640625 37.53023529052734 C 86.91562652587891 39.61845779418945 89.00984954833984 42.79847717285156 89.69818878173828 46.48445510864258 C 90.38658905029297 50.17025756835938 89.58124542236328 53.89161682128906 87.43051147460938 56.96301651000977 C 84.84668731689453 60.65325546264648 80.59864807128906 62.85639572143555 76.06703186035156 62.85639572143555 C 75.20021057128906 62.85639572143555 74.33885955810547 62.77470016479492 73.494140625 62.6143913269043 L 97.96100616455078 87.08099365234375 C 100.5305099487305 89.6505126953125 101.945426940918 93.07177734375 101.9451065063477 96.71451568603516 C 101.9447860717773 100.357536315918 100.5290069580078 103.7787170410156 97.95857238769531 106.3478164672852 C 96.40253448486328 107.9038696289063 94.51661682128906 109.0458831787109 92.43999481201172 109.69970703125 C 93.98287963867188 112.0691833496094 94.75241088867188 114.8727569580078 94.62528991699219 117.7412567138672 C 94.47418975830078 121.1509780883789 93.06424713134766 124.3555374145508 90.65516662597656 126.7645950317383 C 88.08602905273438 129.3340606689453 84.66472625732422 130.7491607666016 81.02156829833984 130.7491607666016 C 78.37751007080078 130.7491607666016 75.7921142578125 129.9774322509766 73.59706878662109 128.5528259277344 C 72.94371032714844 130.6224060058594 71.79935455322266 132.5073547363281 70.23820495605469 134.0684967041016 C 67.66526794433594 136.6417388916016 64.24408721923828 138.0589141845703 60.60488891601563 138.0589141845703 C 57.62250518798828 138.0589141845703 54.77094650268555 137.0976409912109 52.42095947265625 135.3246002197266 C 51.75883865356445 137.3353118896484 50.63674545288086 139.1620788574219 49.12454986572266 140.6742706298828 C 46.55545043945313 143.2437133789063 43.13414764404297 144.6587982177734 39.49097061157227 144.6587982177734 Z"/>
      </g>
      <path id="Path_21" data-name="Path 21" class="cls-4" d="M48.3,2.6S36.413-4.713,27.424,5.19,0,2.752,0,2.752" transform="translate(50.961 51.001)"/>
    </g>
  </g>
</svg>
