<svg xmlns="http://www.w3.org/2000/svg" xmlns:xlink="http://www.w3.org/1999/xlink" width="25" height="25" viewBox="0 0 25 25">
  <defs>
    <clipPath id="clip-path">
      <rect id="Rectangle_33" data-name="Rectangle 33" width="25" height="25" fill="#ff4b40"/>
    </clipPath>
  </defs>
  <g id="Mask_Group_48" data-name="Mask Group 48" transform="translate(0 0)" clip-path="url(#clip-path)">
    <path id="coupon" d="M15.283,4.395h1.953V6.348H15.283Zm0,5.371h1.953V7.813H15.283Zm0,3.418h1.953V11.23H15.283ZM25,2.93V14.648a2.933,2.933,0,0,1-2.93,2.93H18.213a2.917,2.917,0,0,1-1.953-.748,2.917,2.917,0,0,1-1.953.748H2.93A2.933,2.933,0,0,1,0,14.648V2.93A2.933,2.933,0,0,1,2.93,0H14.307A2.917,2.917,0,0,1,16.26.748,2.917,2.917,0,0,1,18.213,0H22.07A2.933,2.933,0,0,1,25,2.93Zm-1.953,0a.978.978,0,0,0-.977-.977H18.213a.978.978,0,0,0-.977.977H15.283a.978.978,0,0,0-.977-.977H2.93a.978.978,0,0,0-.977.977V14.648a.978.978,0,0,0,.977.977H14.307a.978.978,0,0,0,.977-.977h1.953a.978.978,0,0,0,.977.977H22.07a.978.978,0,0,0,.977-.977Z" transform="translate(0 3.711)" fill="#495867"/>
    <path id="Path_182" data-name="Path 182" d="M9.069,13.2H7.534a.678.678,0,0,0-.456,1.164L10.921,18a.669.669,0,0,0,.457.185.658.658,0,0,0,.456-1.138L9.2,14.569a2.974,2.974,0,0,0,2.765-2.289h.946a.662.662,0,0,0,0-1.323h-.946a2.426,2.426,0,0,0-.423-.992h1.369a.662.662,0,0,0,0-1.323H7.54a.662.662,0,1,0,0,1.323H9.075a1.623,1.623,0,0,1,1.5.992H7.534a.662.662,0,0,0,0,1.323h3.043A1.691,1.691,0,0,1,9.069,13.2Zm0,0" transform="translate(-1.534 -1)" fill="#495867" stroke="#495867" stroke-width="0.2"/>
  </g>
</svg>
