<svg xmlns="http://www.w3.org/2000/svg" xmlns:xlink="http://www.w3.org/1999/xlink" viewBox="0 0 170 170">
  <defs>
    <style>
      .cls-1, .cls-3 {
        fill: #fff;
      }

      .cls-2 {
        clip-path: url(#clip-path);
      }

      .cls-3 {
        stroke: #fff;
        stroke-linecap: round;
        stroke-width: 1.5px;
      }
    </style>
    <clipPath id="clip-path">
      <rect id="Rectangle_2" data-name="Rectangle 2" class="cls-1" width="170" height="170"/>
    </clipPath>
  </defs>
  <g id="Mask_Group_8" data-name="Mask Group 8" class="cls-2">
    <g id="payment-method" transform="translate(133.227 5.038) rotate(90)">
      <path id="Path_22" data-name="Path 22" class="cls-3" d="M158.079,0h-54.5a13.491,13.491,0,0,0-9.477,3.92L76.59,21.434H8.038A8.038,8.038,0,0,0,0,29.472V88.417a8.038,8.038,0,0,0,8.038,8.038H125.927a8.038,8.038,0,0,0,8.038-8.038V61.624H142a13.417,13.417,0,0,0,13.128-10.717h2.947a2.679,2.679,0,0,0,2.679-2.679V2.679A2.679,2.679,0,0,0,158.079,0ZM128.607,88.417a2.679,2.679,0,0,1-2.679,2.679H8.038a2.679,2.679,0,0,1-2.679-2.679V29.472a2.679,2.679,0,0,1,2.679-2.679h96.455v2.963L93.865,40.382a5.308,5.308,0,0,0-1.544,3.532c0,.09-.027.177-.027.268a5.331,5.331,0,0,0,1.571,3.8l1.875,1.875a13.37,13.37,0,0,0,18.944,0L127.037,37.51h1.57ZM155.4,45.548H152.72a2.679,2.679,0,0,0-2.679,2.679A8.038,8.038,0,0,1,142,56.265h-8.038V37.51c7.4-.009,13.167-6.551,13.176-13.946l-2.625.281L142,24.114a8.038,8.038,0,0,1-8.038,8.038h-8.038a2.68,2.68,0,0,0-1.894.785L110.9,46.065a8.032,8.032,0,0,1-4.2,2.229,8.181,8.181,0,0,1-7.178-2.232l-1.876-1.889L109.064,32.76a2.682,2.682,0,0,0,.788-1.894V24.114a2.679,2.679,0,0,0-2.679-2.679h-23L97.894,7.708a8.105,8.105,0,0,1,5.688-2.35H155.4Zm0,0"/>
      <path id="Path_23" data-name="Path 23" class="cls-3" d="M21.434,0A21.434,21.434,0,1,0,42.869,21.434,21.434,21.434,0,0,0,21.434,0Zm0,37.51A16.076,16.076,0,1,1,37.51,21.434,16.077,16.077,0,0,1,21.434,37.51Zm0,0" transform="translate(45.548 37.51)"/>
      <circle id="Ellipse_8" data-name="Ellipse 8" class="cls-1" cx="3.5" cy="3.5" r="3.5" transform="translate(140.962 26.227) rotate(-90)"/>
    </g>
  </g>
</svg>
