<svg xmlns="http://www.w3.org/2000/svg" xmlns:xlink="http://www.w3.org/1999/xlink" width="27.26" height="27.26" viewBox="0 0 27.26 27.26">
  <defs>
    <clipPath id="clip-path">
      <rect id="Rectangle_113" data-name="Rectangle 113" width="27.26" height="27.26" transform="translate(137 450)" fill="#ff4b40"/>
    </clipPath>
  </defs>
  <g id="Mask_Group_75" data-name="Mask Group 75" transform="translate(-137 -450)" clip-path="url(#clip-path)">
    <g id="verification-symbol" transform="translate(137 450)">
      <g id="Group_642" data-name="Group 642" transform="translate(2.117 2.117)">
        <path id="Path_224" data-name="Path 224" d="M21.32,6.557a5.668,5.668,0,0,0-1.666-3.185A5.668,5.668,0,0,0,16.47,1.706a3.63,3.63,0,0,1-1.527-.632A5.67,5.67,0,0,0,11.513,0a5.67,5.67,0,0,0-3.43,1.074,3.634,3.634,0,0,1-1.527.632A5.668,5.668,0,0,0,3.372,3.372,5.667,5.667,0,0,0,1.706,6.557a3.627,3.627,0,0,1-.632,1.526A5.668,5.668,0,0,0,0,11.513a5.669,5.669,0,0,0,1.074,3.43,3.625,3.625,0,0,1,.632,1.526,5.667,5.667,0,0,0,1.666,3.185,5.667,5.667,0,0,0,3.184,1.666,3.633,3.633,0,0,1,1.527.632,5.669,5.669,0,0,0,3.43,1.074,5.67,5.67,0,0,0,3.43-1.074,3.633,3.633,0,0,1,1.527-.632,6.015,6.015,0,0,0,4.85-4.85,3.626,3.626,0,0,1,.632-1.526,5.668,5.668,0,0,0,1.074-3.43,5.668,5.668,0,0,0-1.074-3.43A3.623,3.623,0,0,1,21.32,6.557ZM18.851,7.743l-8.273,8.273L9.254,17.34a.936.936,0,0,1-1.324,0L6.606,16.016,4.175,13.585a.936.936,0,0,1,0-1.324L5.5,10.937a.936.936,0,0,1,1.324,0l1.77,1.77L16.2,5.1a.936.936,0,0,1,1.324,0l1.324,1.324A.936.936,0,0,1,18.851,7.743Z" transform="translate(0 0)" fill="none" stroke="#495867" stroke-width="1.5"/>
      </g>
    </g>
  </g>
</svg>
