<?xml version="1.0"?>
<svg xmlns="http://www.w3.org/2000/svg" height="512px" viewBox="0 -4 480 480" width="512px"><path d="m472 0h-162.71875c-10.605469.0234375-20.773438 4.230469-28.296875 11.703125l-52.296875 52.296875h-204.6875c-13.253906 0-24 10.746094-24 24v176c0 13.253906 10.746094 24 24 24h352c13.253906 0 24-10.746094 24-24v-80h24c19-.019531 35.375-13.386719 39.199219-32h8.800781c4.417969 0 8-3.582031 8-8v-136c0-4.417969-3.582031-8-8-8zm-88 264c0 4.417969-3.582031 8-8 8h-352c-4.417969 0-8-3.582031-8-8v-176c0-4.417969 3.582031-8 8-8h288v8.847656l-31.734375 31.726563c-2.804687 2.816406-4.449219 6.578125-4.609375 10.546875 0 .269531-.082031.527344-.082031.800781-.015625 4.253906 1.671875 8.339844 4.691406 11.34375l5.597656 5.597656c7.492188 7.519531 17.667969 11.746094 28.28125 11.746094s20.789063-4.226563 28.28125-11.746094l36.886719-36.863281h4.6875zm80-128h-8c-4.417969 0-8 3.582031-8 8 0 13.253906-10.746094 24-24 24h-24v-56c22.082031-.027344 39.972656-17.917969 40-40h-16c0 13.253906-10.746094 24-24 24h-24c-2.121094 0-4.15625.84375-5.65625 2.34375l-39.199219 39.199219c-3.414062 3.433593-7.78125 5.753906-12.535156 6.65625-7.804687 1.386719-15.792969-1.097657-21.433594-6.664063l-5.601562-5.640625 34.074219-34.078125c1.503906-1.5 2.347656-3.535156 2.351562-5.65625v-20.160156c0-4.417969-3.582031-8-8-8h-68.6875l40.984375-40.984375c4.515625-4.480469 10.621094-7 16.984375-7.015625h154.71875zm0 0" fill="#FFFFFF"/><path d="m200 112c-35.347656 0-64 28.652344-64 64s28.652344 64 64 64 64-28.652344 64-64c-.039062-35.328125-28.671875-63.960938-64-64zm0 112c-26.507812 0-48-21.492188-48-48s21.492188-48 48-48 48 21.492188 48 48c-.027344 26.5-21.5 47.972656-48 48zm0 0" fill="#FFFFFF"/><path d="m63.367188 102.398438c-2.5625 12.574218-12.394532 22.402343-24.96875 24.960937-3.722657.761719-6.398438 4.039063-6.398438 7.839844v81.601562c0 3.800781 2.675781 7.078125 6.398438 7.839844 12.574218 2.558594 22.40625 12.386719 24.96875 24.960937.761718 3.722657 4.035156 6.394532 7.832031 6.398438h32.800781v-16h-26.734375c-4.816406-13.683594-15.582031-24.449219-29.265625-29.265625v-69.46875c13.683594-4.816406 24.449219-15.582031 29.265625-29.265625h26.734375v-16h-32.800781c-3.796875.003906-7.070313 2.675781-7.832031 6.398438zm0 0" fill="#FFFFFF"/><path d="m352 210.734375c-13.683594 4.816406-24.449219 15.582031-29.265625 29.265625h-26.734375v16h32.800781c3.796875-.003906 7.070313-2.675781 7.832031-6.398438 2.5625-12.574218 12.394532-22.402343 24.96875-24.960937 3.722657-.761719 6.398438-4.039063 6.398438-7.839844v-48.800781h-16zm0 0" fill="#FFFFFF"/><path d="m377.152344 329.769531c-9.949219-3.65625-20.949219-3.160156-30.527344 1.375l-103.65625 48.261719c6.875-12.386719 6.679688-27.488281-.503906-39.695312-7.1875-12.210938-20.296875-19.707032-34.464844-19.710938h-120c-21.628906-.015625-41.324219 12.449219-50.566406 32h-29.433594c-4.417969 0-8 3.582031-8 8v104c0 4.417969 3.582031 8 8 8h216.902344c5.84375-.011719 11.613281-1.289062 16.914062-3.742188l138.625-64.617187c19.929688-9.425781 28.539063-33.152344 19.292969-53.167969-4.453125-9.644531-12.585937-17.105468-22.582031-20.703125zm-3.496094 59.382813-138.601562 64.601562c-3.179688 1.476563-6.644532 2.242188-10.152344 2.246094h-208.902344v-88h26.800781c3.402344 0 6.433594-2.15625 7.550781-5.367188 5.609376-15.980468 20.710938-26.667968 37.648438-26.632812h120c13.253906 0 24 10.746094 24 24s-10.746094 24-24 24h-72v16h91.800781c5.828125-.011719 11.589844-1.285156 16.878907-3.734375l108.726562-50.625c5.742188-2.691406 12.316406-2.992187 18.28125-.832031 5.960938 2.15625 10.820312 6.597656 13.503906 12.34375 1.476563 3.199218 2.242188 6.683594 2.25 10.207031-.003906 9.316406-5.371094 17.796875-13.785156 21.792969zm0 0" fill="#FFFFFF"/></svg>
