<svg xmlns="http://www.w3.org/2000/svg" viewBox="0 0 484.45 571.39"><defs><style>.cls-1{fill:#704e22;}.cls-2{fill:#e0c09c;}.cls-3{fill:#c78731;}.cls-4{fill:#e5b242;}.cls-5{fill:#d6b28e;}.cls-6{fill:#8e8d87;}.cls-7{fill:#845d24;}.cls-8{fill:#e86774;}.cls-9{fill:#c19874;}.cls-10,.cls-25,.cls-26,.cls-27{fill:#fff;}.cls-11,.cls-23{fill:none;stroke-miterlimit:10;}.cls-11{stroke:#cea780;}.cls-12{fill:#ba4229;}.cls-13{fill:#a32f1c;}.cls-14{fill:#394049;}.cls-15{fill:#2f373f;}.cls-16{fill:#e0b285;}.cls-17{fill:#b1b2b1;}.cls-18{fill:#272525;}.cls-19{fill:#f1c89a;}.cls-20{fill:#7e858b;}.cls-21{fill:#848c84;}.cls-22{fill:#7da1b6;}.cls-23{stroke:#a32f1c;stroke-width:2px;}.cls-24{fill:#31f472;}.cls-25{font-size:31.88px;}.cls-25,.cls-26,.cls-27{font-family:Lobster-Regular, Lobster;}.cls-26{font-size:27.39px;}.cls-27{font-size:21.45px;}</style></defs><title>Share Bitches</title><g id="Layer_2" data-name="Layer 2"><g id="Object"><polygon class="cls-1" points="183.34 83.51 172.34 101.51 182.34 123.51 185.34 118.51 187.34 93.51 183.34 83.51"/><path class="cls-2" d="M69.34,171.51l-1,5s1,32,10,36c3.66,1.63,7.81.28,11.45-1.89a28.63,28.63,0,0,0,12-14.49c5-13.13,16.27-42.07,18.58-43.62,3-2,8-3,8-3s6-29-4-29-39,63-39,63Z"/><path id="_Path_" data-name="&lt;Path&gt;" class="cls-2" d="M96.32,132.6c7.28-14.88,11.92-16.23,17.29-17.79l.84-.25a18.93,18.93,0,0,1,11.52.62,1,1,0,0,1,.59.6,1.11,1.11,0,0,1,0,.84c-1.59,3.55-8.65,24.77-8.75,25.06L104.23,174l0,0L88.34,209.51c-3.88,1-7.34,3.93-10.19,2.75l-.18-.08c-7.59-3.31-3.92-14-2.16-19.14.36-1,.66-1.93.78-2.45C77.42,186.77,88.87,147.85,96.32,132.6Z"/><path id="_Path_2" data-name="&lt;Path&gt;" class="cls-3" d="M143.28,554.44a1.06,1.06,0,0,1,.9-.34l24.91,2.53a1.08,1.08,0,0,1,1,1,39.62,39.62,0,0,1,0,5.77c0,.23,0,.51-.05.81-.07,2.34-.23,7.18-8.75,7.18h-.47c-9.32-.18-14.89-1.09-15.79-5.16-.72-3.24-1.95-10.56-2-10.87A1.08,1.08,0,0,1,143.28,554.44Z"/><path id="_Path_3" data-name="&lt;Path&gt;" class="cls-3" d="M168.43,543.24c1.81-1.07,10.94-6.44,12.77-6.8s8.41.78,9.71,1a1.14,1.14,0,0,1,.73.5,1.1,1.1,0,0,1,.12.87l-2,6.8c.25,1.24.89,5-.2,6.71-.15.24-.3.52-.45.81-.91,1.74-2.28,4.38-6.71,4.38-1,0-2,0-3.06.09s-2.27.1-3.37.1c-3,0-5.68-.38-6.94-2.23a1.16,1.16,0,0,1-.18-.51l-1-10.7A1.07,1.07,0,0,1,168.43,543.24Z"/><g id="_Group_" data-name="&lt;Group&gt;"><path id="_Path_4" data-name="&lt;Path&gt;" class="cls-2" d="M162.62,474.17l0-.49c-.58-13.56-1.94-45.33-.33-57.34.61-4.51,1.19-8,1.66-10.81.78-4.69,1.25-7.52,1-10.21-.08-.89-.26-1.9-.48-3.06-.86-4.63-2.17-11.63.45-26.35A1.08,1.08,0,0,1,166,365c.23,0,23.49.6,37.6-2.15a1.07,1.07,0,0,1,1,.29,1.1,1.1,0,0,1,.3,1c0,.26-4.84,25.56-5.37,31.56s-5.44,35.5-7.94,47.67-11.09,50.6-11.21,51.11c-.06.18-1.58,4.33-7.32,4.33-5.28,0-10.93-3.25-11.17-3.39a1.08,1.08,0,0,1-.51-1.18C161.4,494.16,163.15,486.46,162.62,474.17Z"/></g><g id="_Group_2" data-name="&lt;Group&gt;"><path id="_Path_5" data-name="&lt;Path&gt;" class="cls-2" d="M127.32,425.17c-.36-12.09-3.81-58.81-3.84-59.29a1.1,1.1,0,0,1,.28-.81,1.09,1.09,0,0,1,.79-.35h36.1a1.09,1.09,0,0,1,1.08,1.07c0,.86.36,21.25,0,24.87-.13,1.34-.48,3.81-.88,6.68-.65,4.7-1.46,10.55-1.46,12.3,0,1.12.2,3.78.44,6.86.36,4.67.81,10.48.81,14.32,0,6.32-1.24,66.32-1.25,67-.1,1.46-.09,5.68,1.1,7.66a1.06,1.06,0,0,1,.05,1c-.15.34-1.75,3.31-9.23,3.51h-.69c-6.9,0-9.71-2.72-9.83-2.84a1,1,0,0,1,0-1.49s1.32-1.73-.24-7.65C138.83,491.64,127.69,437.79,127.32,425.17Z"/></g><path id="_Path_6" data-name="&lt;Path&gt;" class="cls-4" d="M140.09,511.34c-1.11-1.8-2-5.6,1.48-9.15a1.06,1.06,0,0,1,.64-.32l16-2a1.07,1.07,0,0,1,.87.28c.18.16,4.46,4.15,4.46,10,0,6.15,1.19,8.05,1.55,8.49.58.69.68,2.2.83,6.7.12,3.64.29,8.63,1.13,10.48a1.08,1.08,0,0,1-.95,1.52c-.11,0-11,.37-15.21.9a31.89,31.89,0,0,0-7.76,2.08,1.07,1.07,0,0,1-.43.09,1.06,1.06,0,0,1-.61-.2,1.08,1.08,0,0,1-.47-.93c.16-3.5.31-9.49,0-10.7-.36-1.57-1.52-7.6-1.52-8.43v-3.09a11.18,11.18,0,0,0,0-2.38A17,17,0,0,1,140.09,511.34Z"/><path id="_Path_7" data-name="&lt;Path&gt;" class="cls-4" d="M140.16,504.47a1.08,1.08,0,0,1,1.3.25,1.07,1.07,0,0,1,.08,1.32,2.82,2.82,0,0,0,0,3.32,1.07,1.07,0,0,1-.08,1.44c-1.12,1.1-3.06,2.76-4.63,2.76a2,2,0,0,1-.72-.13,2.11,2.11,0,0,1-1.18-2.2C134.88,507.19,140,504.58,140.16,504.47Z"/><path id="_Path_8" data-name="&lt;Path&gt;" class="cls-2" d="M141.6,539.24a1.09,1.09,0,0,1,.77-1c.31-.09,7.67-2.3,12.6-2.58,3.45-.19,7.53-.38,9.63-.47a13.43,13.43,0,0,1-.38-2.12c-.25-2.69-.46-7.06-.46-7.25a1.09,1.09,0,0,1,1-1.13l20.66-2a1.08,1.08,0,0,1,1.09.63l4.14,9.19a1.08,1.08,0,0,1-1.2,1.5c-2.35-.48-9-1.43-11.53-.1l-9.57,5c.39,1,.83,2.22,1.25,3.48,3-1.9,10.38-6.4,13.57-6.42h.06a27.87,27.87,0,0,1,7.87,1.42,1.06,1.06,0,0,1,.59.49c.59,1,1.22,3.2,0,4.78-.39.9-2,4.53-4.53,5h-1.07a4.32,4.32,0,0,1-2.92.75,3.34,3.34,0,0,1-2.92-1.48,8.21,8.21,0,0,1-4.16,1.47,4.3,4.3,0,0,1-.62,0,8.86,8.86,0,0,1-4.53-1.47,15.57,15.57,0,0,1,.53,4c-.13,3.26-.41,10.06-7.09,10.75-2.25.24-3.81.12-4.76-.37a4.24,4.24,0,0,1-3.09,1.46,5.73,5.73,0,0,1-3.58-1.4,5.69,5.69,0,0,1-2.66.31,2.31,2.31,0,0,1-1.87-1.07,3.14,3.14,0,0,1-.18-.37,3.37,3.37,0,0,1-1.28-.24,2.76,2.76,0,0,1-1.91-1.89c-.77-.62-2-1.83-2-3.07a7.1,7.1,0,0,0-.22-.82C142.17,552.36,140.93,548.18,141.6,539.24Z"/><path id="_Path_9" data-name="&lt;Path&gt;" class="cls-3" d="M142.51,548c.47-.11,11.44-2.7,18.35-2.37,8.52.39,10.18,2.16,10.41,3.19a11.53,11.53,0,0,1-.31,6.47,1.1,1.1,0,0,1-1,.66,1,1,0,0,1-.34-.05l-6.07-2c-5.78-1.88-19.79,0-19.93.05a1.09,1.09,0,0,1-1.21-.88l-.71-3.84A1.07,1.07,0,0,1,142.51,548Z"/><path id="_Path_10" data-name="&lt;Path&gt;" class="cls-4" d="M157.5,500.28a11.39,11.39,0,0,0,2.24-4.18,10.16,10.16,0,0,0,.13-1.46c.08-1.72.19-3.85,2.69-5.54a1.07,1.07,0,0,1,.87-.15l16.21,4.12a1,1,0,0,1,.62.44,15.24,15.24,0,0,1,2.53,7.46,9.28,9.28,0,0,1-.88,4.39c2.79,3.25,2.39,4.25,2.24,4.64a9.45,9.45,0,0,0,0,2.8l2.35,10.81a1.06,1.06,0,0,1-.18.86,1.07,1.07,0,0,1-.77.44l-20.66,2h-.11a1.08,1.08,0,0,1-1-.81l-6.51-24.84A1.07,1.07,0,0,1,157.5,500.28Z"/><path id="_Path_11" data-name="&lt;Path&gt;" class="cls-4" d="M178.32,493.88l.68-3.07a1.07,1.07,0,0,1,1.46-.76l4,1.62a1.17,1.17,0,0,1,.3.19,5.75,5.75,0,0,1,1.81,4.06,2.52,2.52,0,0,1-1,2.2,3.13,3.13,0,0,1-1.82.5,10,10,0,0,1-3.29-.71,1.08,1.08,0,0,1-.59-.52l-1.44-2.78A1,1,0,0,1,178.32,493.88Z"/><path id="_Path_12" data-name="&lt;Path&gt;" class="cls-3" d="M166.37,537.62c.34-.23,8.31-5.45,12.29-6.17s10.87.45,11.16.51a1.08,1.08,0,0,1,.85.73c.22.7,1.32,4.28,1.12,6a1.08,1.08,0,0,1-1.65.78,10.66,10.66,0,0,0-6.82-1.2c-4,.68-13.66,6.79-13.76,6.85a1.06,1.06,0,0,1-.58.17,1.12,1.12,0,0,1-.35-.06,1.08,1.08,0,0,1-.66-.66l-2-5.65A1.06,1.06,0,0,1,166.37,537.62Z"/><path id="_Path_13" data-name="&lt;Path&gt;" class="cls-5" d="M149.9,99.55a1,1,0,0,1,.79-.5L176.3,96a1.08,1.08,0,0,1,1.18.85l4.56,21a1.08,1.08,0,0,1-.73,1.26L160,125.92a1.26,1.26,0,0,1-.33,0,1.09,1.09,0,0,1-1-.72l-8.88-24.77A1.05,1.05,0,0,1,149.9,99.55Z"/><path id="_Path_14" data-name="&lt;Path&gt;" class="cls-2" d="M190.1,136.92a1.09,1.09,0,0,1-.42-1h0c.07-.57,1.75-14.06,5.85-19.34,4.26-5.5,10.28-8,31.35-6.64,8.74.58,18.29.67,26.71.74,11.79.11,22,.2,27.36,1.52l2.42.59a1.07,1.07,0,0,1,.82.93,1,1,0,0,1,0,.24,1.05,1.05,0,0,1-.58.84c-16.76,8.43.73,16.7-33,21.83-.33.05-.61.3-.94.22l-29.64,5.23a141.89,141.89,0,0,0-17.54,3.12,100.89,100.89,0,0,0-12.37,3.85C189.82,149.21,190.41,137.16,190.1,136.92Z"/><path id="_Path_15" data-name="&lt;Path&gt;" class="cls-6" d="M109,297c.7-22.74,11.32-80.3,11.77-82.7.1-2.13-.4-50.41-1.38-60.77,9-7,4.61-28.45,4.74-29.32a1.08,1.08,0,0,1,1.07-.92h0c.38,0,37.4.22,43.9-1.64s23.17-9,23.33-9.11l.13,0c.17,0,4.1-1.11,7.11,5.17,2.54,5.3,9,24,9,27.36,0,1.06-.48,4.8-1.31,11.32-1.31,10.18-3.1,24.14-3.25,31-.17,7.65,4.14,26.53,7.61,41.7,1.34,5.87,2.6,11.41,3.41,15.46,3,15,6.26,37.05,4.82,57.2-1.45,20.34-1.13,52.58.17,55.05a3.51,3.51,0,0,1,.32,3.49c-.8,1.77-3,3.09-5.74,3.46l-.44.06c-13.13,1.76-36.75,4.56-47.36,3.54-8.53-.82-20.38-.31-28.22,0-2.84.12-5.06.22-6.41.22l-.88,0-1.57-.07c-3.57-.1-8.44-.24-10.59-4-2.41-4.29-4.29-14-5.17-21.05-.24-1.9-.73-4.27-1.3-7A152.43,152.43,0,0,1,109,297Z"/><path id="_Path_16" data-name="&lt;Path&gt;" class="cls-7" d="M119.57,160.25c0-.1,3.47-10.06,2.59-25.76-.07-1.25-.23-2.58-.42-4.13-.86-7.16-2.3-19.14,2.17-49.93,5.31-36.67,15.53-46,26.42-53,9.18-5.9,15.08-3.06,16.68-2,10.09-1.62,20.15,10.71,23,23.06a28,28,0,0,1,.7,6.37c.56,1.67,4.61,14,6.15,20.83.21.94.46,2,.73,3.12,1.9,7.87,4.5,18.66,1.55,25.59a46.32,46.32,0,0,1-2.75,5.06c-2.52,4.2-5.37,9-4.1,13.16.83,2.74,3.3,5,7.56,7.09,6.39,3,11.21.17,11.41,0a1.08,1.08,0,0,1,1.38,1.64c-.1.11-9.55,10.47-22,3.47-8.67-4.87-8.49-23.63-9.21-42.33-4.28,3.53-20.72,12.33-31,8,8.37,15.3,10.78,28.19,7,40.19-5,15.8-35.3,20.77-36.59,21h-.17a1.08,1.08,0,0,1-1-1.44Z"/><rect id="_Rectangle_" data-name="&lt;Rectangle&gt;" class="cls-8" x="60.51" y="94.7" width="28.1" height="48.51" rx="1.84" ry="1.84" transform="translate(207.03 165.46) rotate(141.43)"/><path id="_Path_17" data-name="&lt;Path&gt;" class="cls-2" d="M172.1,45.8c-3.18-4.55-6.31-6.74-9.23-6.55a6.45,6.45,0,0,0-4.7,3c-2.3,0-9.55.57-12.34,9.16-1.52,4.12-3.63,8.94-4.36,9.55a3.37,3.37,0,0,0-1.06,2,5.79,5.79,0,0,0-2.45-2.4,1.73,1.73,0,0,0-1.73.27c-.84.71-1.61,2.24,0,11.52.92,5.21,3.58,7.44,4.74,8.19v.1c.81,5.27,4.68,22.6,20.42,24.29a20.81,20.81,0,0,0,2.32.13,17.64,17.64,0,0,0,11.67-4.19c3.71-3.14,5.58-7.31,5.68-9.13C181.28,88.73,180.34,57.59,172.1,45.8Z"/><g id="_Group_3" data-name="&lt;Group&gt;"><path id="_Path_18" data-name="&lt;Path&gt;" class="cls-2" d="M64.17,151c-.35-1.17-3-9.6-5.07-13.29C56,132.23,63.49,122,64.36,120.84c2.67-3.55,7.65-7.43,10.32-8.53a2.94,2.94,0,0,1,2.48,0,3.93,3.93,0,0,1,1.4,1.28c1.47-2.1,3.41-4.1,5.2-4.36a2.3,2.3,0,0,1,2,.59c1.2,1.15,1.21,3.08.08,5.65a3.53,3.53,0,0,1,2-1.31,3.68,3.68,0,0,1,2.82.73,3.79,3.79,0,0,1,1.79,2.59,4,4,0,0,1-.26,2.08c.64.85.41,2.28,0,4.45-.08.44-.16.87-.22,1.26-.36,2.32-5.53,13.16-6.13,14.22-.31.53-.5,2.28,0,5.44.32,2.28-1.63,5.07-2.5,6.18L88.76,171c2.85,9.47,1.78,25.89-.26,34L68.17,175.67Z"/></g><g id="_Group_4" data-name="&lt;Group&gt;"><path id="_Path_19" data-name="&lt;Path&gt;" class="cls-9" d="M78.84,139.77a1.2,1.2,0,0,0,.24-.26l12.08-18.89a1.08,1.08,0,0,0-.33-1.49,1.07,1.07,0,0,0-1.49.32L77.26,138.34a1.07,1.07,0,0,0,.32,1.49A1.08,1.08,0,0,0,78.84,139.77Z"/></g><g id="_Group_5" data-name="&lt;Group&gt;"><path id="_Path_20" data-name="&lt;Path&gt;" class="cls-9" d="M70,130a1.08,1.08,0,0,0,.34-.47l2.15-5.81,6.71-7.07a1.08,1.08,0,0,0-1.57-1.49l-6.86,7.24a1.05,1.05,0,0,0-.23.36l-2.23,6a1.07,1.07,0,0,0,.64,1.38A1.09,1.09,0,0,0,70,130Z"/></g><path id="_Path_21" data-name="&lt;Path&gt;" class="cls-10" d="M139,76.15c-1.47,0-2.53,1.75-2.53,4.15s1.06,4.15,2.53,4.15,2.52-1.74,2.52-4.15S140.5,76.15,139,76.15Z"/><path class="cls-11" d="M86.34,163.51s7,19,6,27-1,9-1,9"/><path id="_Path_22" data-name="&lt;Path&gt;" class="cls-12" d="M391.68,206.21c-.18-1.51-.86-3-1.13-4.38.22-.91.52.63.75-.68s.66,2.27.48-1.44c-.41-8.74-.27-17.09-1.29-29-.79-9.27-3.62-33.59-10.78-41.52-2.35-2.61-2.58-2-3.83-2.91-2.06-1.53-1-1-3.26-1.75-3.19-1-5.06-.83-9.19-1.56-6.83-1.21-3.13-3.26-14.18-4.23s-39-.63-53.48-2.63a1.25,1.25,0,0,0-.43,0c-6.11,1.13-9.27.45-16.21,1.77s-14.95-.9-21.51,8.81c-6.89,10.18-28.61,40.65-34,48.65-5.79,8.54-2.84,5.45-4.88,8.33s-.08.29-.54,1.34.13.57.38.87a18.44,18.44,0,0,0,3.41,2.5c-.43,1.38-1.29,2.8-1.72,4.15-.19.59-.33.91.39,1.36,11.43,7.13,24.92,8.94,35.81,17.29,3.35,9.17,4.23,19.35,12.88,26.77s25.5,12,37.74,12.54a4.56,4.56,0,0,0,.83,0c2.29-.37,4.78-.77,7-1.34a31.2,31.2,0,0,1,12.66-.28c6,1.2,8.54,2.38,14.52-.25,3.73-1.63,9.08-1.87,14.56-2.59,4.15-.55,12-4.09,15.27-7.89a11.68,11.68,0,0,1,1.47-1.41c2-1.79,3.3-3.58,2.28-6.16a71.06,71.06,0,0,1-2.75-6.78c-.81-2.78-2-6.39-2.57-9.45,4.19-.48,14.58-2.94,17.16-4.21a11.2,11.2,0,0,0,3.57-2.58C392.17,206.64,391.74,206.76,391.68,206.21Z"/><g id="_Group_6" data-name="&lt;Group&gt;"><g id="_Group_7" data-name="&lt;Group&gt;"><g id="_Group_8" data-name="&lt;Group&gt;"><path id="_Path_23" data-name="&lt;Path&gt;" class="cls-13" d="M264.8,156.64a.83.83,0,0,1-.55-.47c-2.89-7.26-3.86-19.82-4.32-26-.22-3.06.2-1.24.63-1.11s.43-2.58.83,1.4,1.58,19.35,4.33,25.24c.12.25-.12,1-.42,1S265,156.65,264.8,156.64Z"/></g></g></g><g id="_Group_9" data-name="&lt;Group&gt;"><g id="_Group_10" data-name="&lt;Group&gt;"><g id="_Group_11" data-name="&lt;Group&gt;"><path id="_Path_24" data-name="&lt;Path&gt;" class="cls-13" d="M255.74,183a.77.77,0,0,1-.55-.27c-8.12-12.07-2.33-29.62.48-41.49.79-3.34.43-.05.92-1,.31-.59.09-.27.09-.24-.28,3.49,1.66-4.56.24,2.46s-8.58,30.22-.25,39.46c.23.25,0,.95-.24,1A3,3,0,0,1,255.74,183Z"/></g></g></g><g id="_Group_12" data-name="&lt;Group&gt;"><g id="_Group_13" data-name="&lt;Group&gt;"><g id="_Group_14" data-name="&lt;Group&gt;"><path id="_Path_25" data-name="&lt;Path&gt;" class="cls-13" d="M267.87,186.15c-.21-.63-.6,1.73-.75-1s-1.53-3.44-1-10.3,5.44-27.84,6.66-36.13c.33-2.2.56-1.45.86-.84s1.17-2.9.49,1.81-6,30.08-6.36,35.19a33.72,33.72,0,0,0,1.08,10.07c.2,2.66-.31.72-.68,1.37C268.07,186.4,268.07,186.77,267.87,186.15Z"/></g></g></g><path id="_Path_26" data-name="&lt;Path&gt;" class="cls-14" d="M371.54,266.68c-.36-2.86-2.33-16.45-2.34-16.55l-1.08-10.23a1.09,1.09,0,0,0-1.08-1h-92.7a1.08,1.08,0,0,0-1,.7c-.16.42-1.57,4.16-1.57,5.93v5.13c-.39,2.25-7.24,42.71-2.86,65.68,1.56,8.15,4,17.14,6.49,26.66,4.69,17.62,10,37.59,10.6,55.66.55,16.87-.38,23.76-1.05,28.79a46.44,46.44,0,0,0-.57,9.78c.54,9.82,4.29,44.2,4.33,44.55a1,1,0,0,0,.23.55c.13.17,3.31,4.06,9.77,3.47,6.18-.56,17.37-9,17.84-9.41a1.07,1.07,0,0,0,.43-.82c0-.11.1-3.58.25-8.43l.24,11.3a1.08,1.08,0,0,0,.6.94c.43.22,10.65,5.4,15.05,6.45a21.54,21.54,0,0,0,4.8.48,36.23,36.23,0,0,0,5.73-.47,1.07,1.07,0,0,0,.87-.89c.31-1.89,7.58-46.36,7.22-53.78-.07-1.47-.21-3.28-.36-5.3-.59-7.84-1.48-19.67.35-28.46.81-3.86,3.51-14.4,6.63-26.61,6.12-23.89,13.74-53.62,14.45-61.23C373.87,298.2,371.93,269.81,371.54,266.68Z"/><g id="_Group_15" data-name="&lt;Group&gt;"><path id="_Path_27" data-name="&lt;Path&gt;" class="cls-15" d="M322.47,262.14c-28.55,0-46.05-11-46.79-11.53a1.08,1.08,0,1,1,1.17-1.81c.18.11,18.27,11.54,46.95,11.17s44-8.3,44.14-8.38a1.08,1.08,0,1,1,1,1.9c-.63.34-15.85,8.28-45.13,8.64Z"/></g><g id="_Group_16" data-name="&lt;Group&gt;"><path id="_Path_28" data-name="&lt;Path&gt;" class="cls-15" d="M323.28,298.34l-.24,0a1.08,1.08,0,0,1-.82-1.29c2-9-.61-32-.91-34.53a58.93,58.93,0,0,1-3.36-6.71c-1.54-3.84,2-6.79,2.17-6.91a1.08,1.08,0,1,1,1.37,1.67c-.12.1-2.48,2.09-1.54,4.44a58.43,58.43,0,0,0,3.34,6.6,1.23,1.23,0,0,1,.14.42c.13,1.05,3.08,25.69.9,35.49A1.09,1.09,0,0,1,323.28,298.34Z"/></g><g id="_Group_17" data-name="&lt;Group&gt;"><path id="_Path_29" data-name="&lt;Path&gt;" class="cls-15" d="M278.74,269.78a10,10,0,0,1-2.78-.35,23.39,23.39,0,0,1-5.94-2.38,1.09,1.09,0,0,1,1.23-1.79,21.5,21.5,0,0,0,5.32,2.09c3.36,1,8.71-.9,11.28-1.8l.86-.3c.83-.33,2.4-4.45,3.28-8.66a1.08,1.08,0,0,1,2.11.45c-.59,2.81-2.22,9.43-4.7,10.26l-.83.29C286.38,268.36,282.32,269.78,278.74,269.78Z"/></g><g id="_Group_18" data-name="&lt;Group&gt;"><path id="_Path_30" data-name="&lt;Path&gt;" class="cls-15" d="M358.64,271.81c-3,0-6.51-.23-8.06-1.2-2.22-1.39-3.93-8.17-4.4-10.21a1.08,1.08,0,1,1,2.1-.49c.87,3.77,2.44,8.24,3.45,8.87,1.42.89,6.66,1,10.92.74a40.56,40.56,0,0,0,7.64-1.84,1.08,1.08,0,0,1,.7,2.05,42.44,42.44,0,0,1-8.2,1.95C362,271.73,360.4,271.81,358.64,271.81Z"/></g><g id="_Group_19" data-name="&lt;Group&gt;"><path id="_Compound_Path_" data-name="&lt;Compound Path&gt;" class="cls-15" d="M324.26,259.07a3.56,3.56,0,1,1,3-3.51A3.27,3.27,0,0,1,324.26,259.07Zm0-4.86c-.39,0-.82.58-.82,1.35s.43,1.35.82,1.35.82-.58.82-1.35S324.64,254.21,324.26,254.21Z"/></g><g id="_Group_20" data-name="&lt;Group&gt;"><path id="_Compound_Path_2" data-name="&lt;Compound Path&gt;" class="cls-15" d="M297.52,263.48a.64.64,0,0,1-.2,0l-2.79-.81a.7.7,0,0,1-.51-.76,25.54,25.54,0,0,0,0-4.48c-.26-2,1.62-8,1.84-8.63a.71.71,0,0,1,.68-.5h2.22a.71.71,0,0,1,.53.24.7.7,0,0,1,.19.55c0,.22-.56,5.35-1.32,7.1-.47,1.08-.22,4.56.05,6.5a.71.71,0,0,1-.71.82Zm-2-2.06,1.17.35c-.18-1.7-.4-4.82.19-6.18a31.32,31.32,0,0,0,1.11-5.88h-.88c-.62,2-1.79,6.18-1.62,7.51A24.71,24.71,0,0,1,295.5,261.42Z"/></g><g id="_Group_21" data-name="&lt;Group&gt;"><path id="_Compound_Path_3" data-name="&lt;Compound Path&gt;" class="cls-15" d="M344.71,265.19h-3.08a.72.72,0,0,1-.66-.43c-.54-1.24-.1-3.69.41-6.52.1-.52.19-1,.28-1.54.46-2.74-.71-6.75-.72-6.79a.72.72,0,0,1,.48-.89l2.36-.72a.71.71,0,0,1,.89.47,20.93,20.93,0,0,1,.75,9.33,35.08,35.08,0,0,0,0,6.31.74.74,0,0,1-.19.55A.72.72,0,0,1,344.71,265.19Zm-2.52-1.44h1.74a32.36,32.36,0,0,1,.07-5.87,19.54,19.54,0,0,0-.5-8l-1,.3a18.75,18.75,0,0,1,.57,6.75c-.09.5-.18,1-.28,1.55A23.71,23.71,0,0,0,342.19,263.75Z"/></g><g id="_Group_22" data-name="&lt;Group&gt;"><path id="_Path_31" data-name="&lt;Path&gt;" class="cls-15" d="M317.26,404.24h0a1.08,1.08,0,0,1-1.05-1.12l3.06-83.93a1.09,1.09,0,0,1,1.12-1,1.08,1.08,0,0,1,1,1.12l-3.06,83.93A1.08,1.08,0,0,1,317.26,404.24Z"/></g><path class="cls-16" d="M365.34,195.51s-5,23-2,28,20-8,20-8l-8.29-20.23s-1.71-3.77-3.71-2.77Z"/><path id="_Path_32" data-name="&lt;Path&gt;" class="cls-16" d="M337.9,92.47H304.18a1.08,1.08,0,0,0-1.08,1.08V124a1,1,0,0,0,.06.34c.16.48,16,47.82,16.7,53.59a1.09,1.09,0,0,0,1,.95h.11a1.08,1.08,0,0,0,1-.72c.69-2,16.89-48.71,17-59V93.55A1.08,1.08,0,0,0,337.9,92.47Z"/><path id="_Path_33" data-name="&lt;Path&gt;" class="cls-17" d="M321.36,557.82c0-1.6,0-22.61-4.1-33.12a1.71,1.71,0,0,0-.13-.23c-.44-.62-4.4-6-8.44-6-3.82,0-10.8,4.53-11.59,5a1,1,0,0,0-.38.46c-.19.41-4.6,10.16-4.78,15.72a28.79,28.79,0,0,1-.77,4.91c-.79,3.66-1.6,7.45.78,11.31.12,1.78,1.45,9.47,15.16,11.18a26.07,26.07,0,0,0,3.42.23c3.81,0,6.68-1,8.56-2.87A8.49,8.49,0,0,0,321.36,557.82Z"/><path id="_Compound_Path_4" data-name="&lt;Compound Path&gt;" class="cls-18" d="M359.39,116.85l.4-1.79a1.07,1.07,0,0,0-1.79-1,15.75,15.75,0,0,1-1.68,1.35,3.52,3.52,0,0,1-.43-.72c5.28-7.26,2.58-24.68,1.66-29.68.88-14.94.13-36.43-9.85-46.47a.69.69,0,0,0-.13-.11c-.47-.33-11.43-8.14-17.71-8.09-2.54,0-25,.89-32.14,23.81-1.08,3.45-2.08,6.26-3,8.59-2,2-7.15,7.88-7,13.68a11.85,11.85,0,0,0-.75,3.36,44.53,44.53,0,0,0,.16,9.87c-1.05,2-5.14,16.08-4.82,22.29-5.77,4.57-10.18,6.08-13.46,4.61a1.08,1.08,0,0,0-1.47,1.33c.08.25,2.09,6,10.64,7.39,5.25.88,12.31-.68,13.49-.9,2.94-.55,2.44-2.51,4.82-2.17.34,0,.69.08,1.05.11,7.72.54,9.05.28,9.48-2.85-1.3-1.58-.2-13.31.4-16.24a21.76,21.76,0,0,0,.05-11l32,4.28c-3.23,3.62-9.55,12.76-8.91,18.21.9,7.61,7.73,9.32,15,10,9.81,1,12.71-1.61,13.41-3.93A12.21,12.21,0,0,0,359.39,116.85Zm-5.84-1.75a20.22,20.22,0,0,1,.18-3.63,15,15,0,0,0,.56,2.92A6.18,6.18,0,0,1,353.55,115.1Zm1.55,1a2.83,2.83,0,0,1-.94.31,8.81,8.81,0,0,0,.75-.62C355,115.92,355,116,355.1,116.13Zm.26-3.24a39.19,39.19,0,0,1-.11-9.74c.2-.84.39-1.6.57-2.25,0-.12.67-3.82,1.22-9.43C357.82,98.2,358.25,107.77,355.36,112.89ZM289.85,72.5a21.31,21.31,0,0,1,2.81-5.1A55.21,55.21,0,0,1,289.85,72.5Zm-2.62,20.41c-.16,2.73-2.16,14.87-3.49,17.27A102.86,102.86,0,0,1,287.23,92.91Z"/><g id="_Group_23" data-name="&lt;Group&gt;"><g id="_Group_24" data-name="&lt;Group&gt;"><g id="_Group_25" data-name="&lt;Group&gt;"><path id="_Path_34" data-name="&lt;Path&gt;" class="cls-13" d="M366,176.71a.69.69,0,0,1-.2,0,.72.72,0,0,1-.49-.89c2.49-8.49,1.39-40.87,1.38-41.19a.73.73,0,0,1,.7-.75.7.7,0,0,1,.74.69c.05,1.35,1.12,33-1.44,41.65A.71.71,0,0,1,366,176.71Z"/></g></g></g><path id="_Path_35" data-name="&lt;Path&gt;" class="cls-17" d="M344,539.09c-1.73-2.59-6.7-14.3-6.75-14.42a1.07,1.07,0,0,0-1-.65h-20a1.07,1.07,0,0,0-.78.33,1.09,1.09,0,0,0-.3.79c0,1,.94,24.4,4.09,33.1,3,8.27,12.77,9.08,16.47,9.08.63,0,1.09,0,1.3,0,1-.07,9.77-.84,12-7.82C351,553,345.56,541.45,344,539.09Z"/><path id="_Path_36" data-name="&lt;Path&gt;" class="cls-19" d="M337,508.7c.81-2.65,2-6.65,2.33-7.18a1.12,1.12,0,0,0,.06-1,1.09,1.09,0,0,0-.8-.61l-20.14-3.55a1.08,1.08,0,0,0-1.25,1.25c0,.08,1.37,8.12.86,12.78a30.37,30.37,0,0,1-1.71,6.63,16,16,0,0,0-1.15,4.66c0,2.49,0,3.39,0,3.4a1,1,0,0,0,.31.78,1.07,1.07,0,0,0,.77.33h20a1.08,1.08,0,0,0,1.05-1.35c-1.17-4.61-2.21-10.22-1.83-11.25C335.75,512.77,336.33,510.88,337,508.7Z"/><path id="_Path_37" data-name="&lt;Path&gt;" class="cls-19" d="M316.46,514.54c-.79-1.65-2.09-7.88-1.32-19.65a1.08,1.08,0,0,0-.34-.86,1.06,1.06,0,0,0-.9-.28l-19.06,2.85a1.09,1.09,0,0,0-.76.51,1.06,1.06,0,0,0-.1.9c0,.11,3.54,10.56,3.54,14.84a16.82,16.82,0,0,1-1.19,5.55c-.61,1.8-1.14,3.36-.5,4.66l1.8,3.6a1.1,1.1,0,0,0,.71.57,1.15,1.15,0,0,0,.26,0,1.07,1.07,0,0,0,.64-.21s4.41-3.17,8.79-2.68a34.6,34.6,0,0,1,7.83,1.73,1.08,1.08,0,0,0,1.47-1C317.36,524.3,317.59,516.87,316.46,514.54Z"/><path id="_Path_38" data-name="&lt;Path&gt;" class="cls-19" d="M305.27,60.81c1.21-2.33,5.25-9.13,5.43-9.43,1.71-2.9,5.58-2.82,10.9.24C324,53,341.4,66,343.93,72s-2.42,21.91-5,25c-2.45,2.86-17.75,13.5-24.21,12.19-5.41-1.1-9.79-8.73-11.9-12.4-.34-.6-.61-1.06-.79-1.34-1.49-2.25-2.1-17.51-1.59-20A105.85,105.85,0,0,1,305.27,60.81Z"/><path id="_Path_39" data-name="&lt;Path&gt;" class="cls-20" d="M316.39,474.61a1.09,1.09,0,0,0-1.09.05c-.1.06-9.53,6.26-12.23,7.58-1.87.91-7.49.62-10.92-.58h0a2.71,2.71,0,0,0-3.61,2.51,25.93,25.93,0,0,0,.16,3.59c0,.1,1.35,10.54,5.13,10.86.56,0,1.48.18,2.57.34a60.2,60.2,0,0,0,8.28.86,13.67,13.67,0,0,0,2-.13c3.66-.58,9.26-4.9,9.5-5.08a1.08,1.08,0,0,0,.39-.59C317.6,490,320.6,476.81,316.39,474.61Z"/><path id="_Path_40" data-name="&lt;Path&gt;" class="cls-20" d="M346.09,484.9a3.71,3.71,0,0,0-2.61-1.17h-.05c-12.07.21-17.82-3.45-20.9-5.4a14.15,14.15,0,0,0-1.82-1.05,3.1,3.1,0,0,0-2.88-.06,3.05,3.05,0,0,0-1.41,2.1c-.24,1.19-2.33,11.78-2,14.58.44,3.34,4.53,6.06,12.14,8.1a22.65,22.65,0,0,0,5.88.92,13.51,13.51,0,0,0,3.67-.52,9,9,0,0,1,2.25-.36,4.77,4.77,0,0,0,4.81-3c.13-.39,3.1-9.42,3.47-11.76A3,3,0,0,0,346.09,484.9Z"/><g id="_Group_26" data-name="&lt;Group&gt;"><g id="_Group_27" data-name="&lt;Group&gt;"><g id="_Group_28" data-name="&lt;Group&gt;"><path id="_Path_41" data-name="&lt;Path&gt;" class="cls-13" d="M391.18,201.8h0l-6.85-.09a.73.73,0,0,1-.71-.73.69.69,0,0,1,.73-.72l6.85.09a.73.73,0,0,1,0,1.45Z"/></g></g></g><g id="_Group_29" data-name="&lt;Group&gt;"><path id="_Path_42" data-name="&lt;Path&gt;" class="cls-21" d="M301.66,543.58c-5.14,0-7.27-8.64-7.36-9a.72.72,0,0,1,1.4-.34c0,.09,2,8.16,6.16,7.91,4.73-.29,13.47-1.24,13.55-1.25a.71.71,0,0,1,.8.64.72.72,0,0,1-.64.79c-.09,0-8.86,1-13.63,1.26Z"/></g><g id="_Group_30" data-name="&lt;Group&gt;"><path id="_Path_43" data-name="&lt;Path&gt;" class="cls-21" d="M315.35,550.38a4.24,4.24,0,0,1-2.82-1.39,4.43,4.43,0,0,0-2.65-1.38,4.25,4.25,0,0,0-3,1.27,5.55,5.55,0,0,1-3.35,1.49c-2.62,0-8.85-5.11-9.55-5.69a.72.72,0,0,1-.1-1,.73.73,0,0,1,1-.1c2.49,2.07,7,5.36,8.63,5.36a4.21,4.21,0,0,0,2.47-1.2,5.58,5.58,0,0,1,4-1.56,5.9,5.9,0,0,1,3.47,1.74c.78.68,1.24,1,2,1a3.52,3.52,0,0,0,2.4-1.17,2.19,2.19,0,0,0,.62-1.54.72.72,0,0,1,1.44-.11,3.56,3.56,0,0,1-1,2.59,4.9,4.9,0,0,1-3.41,1.67Z"/></g><g id="_Group_31" data-name="&lt;Group&gt;"><path id="_Path_44" data-name="&lt;Path&gt;" class="cls-21" d="M306.55,562.26c-9.67,0-13.95-6.06-14.13-6.32a.72.72,0,0,1,1.19-.81s4.15,5.85,13.21,5.69c9.53-.12,11.5-.75,12.91-2.7a.71.71,0,0,1,1-.17.73.73,0,0,1,.17,1c-1.87,2.59-4.37,3.18-14.06,3.3Z"/></g><g id="_Group_32" data-name="&lt;Group&gt;"><path id="_Path_45" data-name="&lt;Path&gt;" class="cls-21" d="M337.45,562.72a80.86,80.86,0,0,1-8.74-.46,13.88,13.88,0,0,1-6.88-3.19.72.72,0,0,1-.05-1,.73.73,0,0,1,1,0,12.59,12.59,0,0,0,6.09,2.83c3.75.48,12.22.68,13.94,0s4.76-3.91,4.79-4.71a.75.75,0,0,1,.72-.72h0a.7.7,0,0,1,.72.66c.08,1.71-3.82,5.4-5.72,6.11A22.1,22.1,0,0,1,337.45,562.72Z"/></g><g id="_Group_33" data-name="&lt;Group&gt;"><path id="_Path_46" data-name="&lt;Path&gt;" class="cls-21" d="M340.48,550.56c-2.18,0-5.13-1.83-6.43-2.73a9.22,9.22,0,0,1-5.44,2.54c-3.58.27-8.93-6.08-9.53-6.81a.72.72,0,0,1,1.1-.92c2.11,2.52,6.22,6.45,8.32,6.3a8,8,0,0,0,4.91-2.52.74.74,0,0,1,1-.11c2,1.49,5.47,3.31,6.69,2.7s2.37-4.55,2.7-6.84a.71.71,0,0,1,.82-.6.71.71,0,0,1,.61.81c-.1.69-1,6.7-3.48,7.92A2.83,2.83,0,0,1,340.48,550.56Z"/></g><g id="_Group_34" data-name="&lt;Group&gt;"><path id="_Path_47" data-name="&lt;Path&gt;" class="cls-21" d="M329.45,543c-8.35,0-10.9-4.62-11-4.82a.72.72,0,1,1,1.27-.68h0c.1.18,2.54,4.44,10.82,4,9.15-.44,10.73-1.06,10.58-4.1a.72.72,0,0,1,.69-.75.71.71,0,0,1,.75.68c.24,4.8-3.71,5.21-11.95,5.61Z"/></g><g id="_Group_35" data-name="&lt;Group&gt;"><path id="_Compound_Path_5" data-name="&lt;Compound Path&gt;" class="cls-21" d="M322.12,527.92c-2.32,0-3.89-.81-4.21-1.84a1.33,1.33,0,0,1,.89-1.65c1.67-.7,8.41.29,9.75.49a.78.78,0,0,1,.62.9c-.09.55-.47,1-4.67,1.84A11.6,11.6,0,0,1,322.12,527.92Zm-2.76-2.16c.37.37,1.95,1.08,4.85.49.5-.1.93-.19,1.3-.28C322.84,525.66,320.07,525.47,319.36,525.76Z"/></g><g id="_Group_36" data-name="&lt;Group&gt;"><path id="_Compound_Path_6" data-name="&lt;Compound Path&gt;" class="cls-21" d="M339.2,526.79a31.28,31.28,0,0,1-7.34-1.2.73.73,0,0,1-.33-1.18c.49-.53,4.89-5.16,8-4.77a4,4,0,0,1,3.19,4.14,2.88,2.88,0,0,1-2.74,3C339.75,526.79,339.48,526.79,339.2,526.79Zm-5.75-2.27a24,24,0,0,0,6.46.81,1.47,1.47,0,0,0,1.41-1.59,2.58,2.58,0,0,0-1.92-2.67C337.71,520.85,335,523,333.45,524.52Z"/></g><g id="_Group_37" data-name="&lt;Group&gt;"><path id="_Path_48" data-name="&lt;Path&gt;" class="cls-21" d="M326.4,537.52a.72.72,0,0,1-.72-.72c0-4.48,4-10.87,4.17-11.14a.76.76,0,0,1,.37-.29c3.48-1.23,12.8-4.91,14.17-7.19a.72.72,0,1,1,1.24.74c-1.8,3-12.56,7-14.69,7.72-.68,1.13-3.82,6.52-3.82,10.16A.72.72,0,0,1,326.4,537.52Z"/></g><g id="_Group_38" data-name="&lt;Group&gt;"><path id="_Path_49" data-name="&lt;Path&gt;" class="cls-21" d="M326.4,531.4a.72.72,0,0,1-.27-1.39c.24-.1,6.11-2.43,8.7.16a.72.72,0,1,1-1,1c-1.59-1.59-5.7-.43-7.14.16A.86.86,0,0,1,326.4,531.4Z"/></g><g id="_Group_39" data-name="&lt;Group&gt;"><path id="_Path_50" data-name="&lt;Path&gt;" class="cls-21" d="M326.4,534.05a.72.72,0,0,1-.27-1.39c.25-.1,6.11-2.43,8.7.16a.72.72,0,0,1-1,1c-1.59-1.59-5.7-.42-7.14.16A.86.86,0,0,1,326.4,534.05Z"/></g><g id="_Group_40" data-name="&lt;Group&gt;"><path id="_Path_51" data-name="&lt;Path&gt;" class="cls-21" d="M327,536.61a.74.74,0,0,1-.67-.45.72.72,0,0,1,.4-.94c.25-.1,6.12-2.43,8.7.16a.71.71,0,0,1-1,1c-1.6-1.59-5.7-.42-7.15.16A.66.66,0,0,1,327,536.61Z"/></g><g id="_Group_41" data-name="&lt;Group&gt;"><path id="_Path_52" data-name="&lt;Path&gt;" class="cls-21" d="M327.78,540.37a.72.72,0,0,1-.27-1.39c.24-.1,6.11-2.43,8.7.16a.72.72,0,0,1-1,1c-1.59-1.6-5.69-.43-7.14.15A.66.66,0,0,1,327.78,540.37Z"/></g><g id="_Group_42" data-name="&lt;Group&gt;"><path id="_Path_53" data-name="&lt;Path&gt;" class="cls-21" d="M326.1,528.9a.72.72,0,0,1-.28-1.38c.25-.1,6.12-2.44,8.71.16a.72.72,0,0,1-1,1c-1.59-1.59-5.7-.42-7.15.16A.6.6,0,0,1,326.1,528.9Z"/></g><g id="_Group_43" data-name="&lt;Group&gt;"><path id="_Compound_Path_7" data-name="&lt;Compound Path&gt;" class="cls-21" d="M302.07,527.9h-.55c-3.62-.09-6.28-1.32-7.12-3.31a2.79,2.79,0,0,1,.49-3c1.66-1.79,9.68,1.29,13.05,2.69a.72.72,0,0,1,.44.67,2.17,2.17,0,0,1-.74,1.5C306.62,527.39,304.75,527.9,302.07,527.9Zm-5.44-5.53a1.06,1.06,0,0,0-.69.16,1.36,1.36,0,0,0-.21,1.49c.47,1.12,2.25,2.34,5.83,2.43,3.28.09,4.67-.62,5.16-1.16C302.43,523.55,298.29,522.37,296.63,522.37Z"/></g><g id="_Group_44" data-name="&lt;Group&gt;"><path id="_Path_54" data-name="&lt;Path&gt;" class="cls-21" d="M328.44,526.36a.73.73,0,0,1-.71-.58.72.72,0,0,1,.56-.85l3.63-.74a.72.72,0,0,1,.29,1.41l-3.63.74Z"/></g><g id="_Group_45" data-name="&lt;Group&gt;"><path id="_Compound_Path_8" data-name="&lt;Compound Path&gt;" class="cls-21" d="M312,526.07a26.92,26.92,0,0,1-4.5-.46.72.72,0,0,1-.33-1.27c1.72-1.4,5.9-4.52,7.56-3.23.84.66,1.88,2.1,1.31,3.39C315.62,525.55,314.28,526.07,312,526.07Zm-2.59-1.63c4.66.6,5.26-.39,5.31-.52.19-.41-.32-1.24-.87-1.67C313.48,522,311.6,522.89,309.45,524.44Z"/></g><g id="_Group_46" data-name="&lt;Group&gt;"><path id="_Path_55" data-name="&lt;Path&gt;" class="cls-21" d="M317.51,539.86a.73.73,0,0,1-.71-.58c-2-10.34-8.13-12.59-9.15-12.9-5.63,1.35-14.78,4.2-15.92,6.28a.72.72,0,0,1-1.27-.69c1.85-3.35,15.49-6.67,17-7a.69.69,0,0,1,.32,0c.33.08,8,1.92,10.4,14.07a.73.73,0,0,1-.57.85Z"/></g><g id="_Group_47" data-name="&lt;Group&gt;"><path id="_Path_56" data-name="&lt;Path&gt;" class="cls-21" d="M304.54,540.59a.72.72,0,0,1-.68-.49.71.71,0,0,1,.45-.91c.22-.08,5.56-1.89,8.82-.73a.72.72,0,0,1-.48,1.36c-2.8-1-7.82.71-7.87.73A1,1,0,0,1,304.54,540.59Z"/></g><g id="_Group_48" data-name="&lt;Group&gt;"><path id="_Path_57" data-name="&lt;Path&gt;" class="cls-21" d="M304.54,537.14a.71.71,0,0,1-.68-.48.72.72,0,0,1,.45-.92c.22-.08,5.56-1.88,8.82-.72a.72.72,0,1,1-.48,1.35c-2.8-1-7.82.72-7.87.73A.67.67,0,0,1,304.54,537.14Z"/></g><g id="_Group_49" data-name="&lt;Group&gt;"><path id="_Path_58" data-name="&lt;Path&gt;" class="cls-21" d="M304.54,533.57a.71.71,0,0,1-.68-.48.72.72,0,0,1,.45-.92c.22-.08,5.56-1.88,8.82-.72a.72.72,0,1,1-.48,1.35c-2.8-1-7.82.72-7.87.74Z"/></g><g id="_Group_50" data-name="&lt;Group&gt;"><path id="_Path_59" data-name="&lt;Path&gt;" class="cls-21" d="M304.54,530.92a.72.72,0,0,1-.23-1.4c.22-.08,5.56-1.88,8.82-.72a.72.72,0,1,1-.48,1.35c-2.8-1-7.82.71-7.87.73A.67.67,0,0,1,304.54,530.92Z"/></g><path id="_Path_60" data-name="&lt;Path&gt;" class="cls-19" d="M343.25,77a1,1,0,0,1,1.09.43c.17.14,1.07.24,3-1,1.59-1.06,2.88-.58,3.56.22,2,2.31.46,8.67-5.38,14.92a1.05,1.05,0,0,1-.87.34l-.13,0a1.07,1.07,0,0,1-.68-.45l-2.67-4a1.13,1.13,0,0,1-.17-.78l1.46-8.75A1.12,1.12,0,0,1,343.25,77Z"/><ellipse id="_Ellipse_" data-name="&lt;Ellipse&gt;" class="cls-10" cx="345.56" cy="89.23" rx="1.89" ry="1.26" transform="translate(94.7 343.09) rotate(-59.82)"/><path id="_Path_61" data-name="&lt;Path&gt;" class="cls-22" d="M413.52,115l13,15.71a3,3,0,0,1-.59,4.4l-33.06,23a3.12,3.12,0,0,1-4.16-.54l-12.87-15.15a3.49,3.49,0,0,1,.65-5.1l32.59-22.9A3.28,3.28,0,0,1,413.52,115Z"/><path id="_Path_62" data-name="&lt;Path&gt;" class="cls-19" d="M391.75,223a15,15,0,0,0,5.49-13.15,2.09,2.09,0,0,1,0-.24,63.72,63.72,0,0,1,5.23-19.76c1.48-3.38,2.9-6.37,4.16-9,2.47-5.19,4-8.39,4-10.3.38-1.34,2.95-10.57,3.9-12.7,1.13-2.52,1.44-9.06,1.47-9.82l0-2.36-.32-9.42a3.93,3.93,0,0,0-2.6-3.64,2.53,2.53,0,0,0-2.18.18,4.13,4.13,0,0,0-1.65,3.09c-.19,1.11-.31,2.28-.43,3.41-.41,3.76-.79,7.31-3.21,8.65-1.15.64-1.5.52-1.5.52a4.09,4.09,0,0,1-.42-1.4,8,8,0,0,0-.37-1.52c-.51-1.34-5.87-13.45-7.08-14.72s-2.66-2.14-3.87-2.14a3,3,0,0,0-2.22,1c-2.44,2.53-.29,5.62.86,7.29s3.77,9.72,5.34,15c-.15.33-.39.68-.54.71s-.6-.14-1.39-1.15c-2.94-3.76-5.07-7.44-5.28-9.16-.28-2.18-.72-3.19-1.8-4.13a3.32,3.32,0,0,0-3.19-.81,2.64,2.64,0,0,0-1.5,2.54,29.84,29.84,0,0,0,1.84,10.39l-2.59-2.43a1.07,1.07,0,0,0-1.8.61c-.09.5-.8,5,.4,7.13.33.59,1,1.65,1.72,2.87a69,69,0,0,1,3.73,6.48c.1,1,2.58,5.66,4.19,8.56-.25,1-1.33,4.16-5.35,9.15l-.73.91c-6.27,7.76-20.95,25.92-20.5,36.52.18,4.22,1,7,2.5,8.55a3.7,3.7,0,0,0,.28.28c1.85,1.67,4.23,1.54,6.54,1.41q.63,0,1.26-.06C375.17,230.26,382.87,229.78,391.75,223Z"/><g id="_Group_51" data-name="&lt;Group&gt;"><g id="_Group_52" data-name="&lt;Group&gt;"><g id="_Group_53" data-name="&lt;Group&gt;"><path id="_Path_63" data-name="&lt;Path&gt;" class="cls-13" d="M253.75,204.86l-.17,0-10.44-2.52a.73.73,0,0,1-.54-.87.72.72,0,0,1,.87-.53l10.45,2.52a.72.72,0,0,1-.17,1.42Z"/></g></g></g><path class="cls-19" d="M237.77,189.92c-2.54-2.56-8.6-7.49-8.6-7.49L214,203.75a61.61,61.61,0,0,0-7.95-.81c.28,1.16,4.1,17.35,5.08,23.26L225.26,225s23.3-24.2,26-30.19C251.21,194.79,240.31,192.48,237.77,189.92Z"/><polyline class="cls-23" points="224.34 181.51 229.34 182.51 239.74 191.22 254.34 195.51 257.34 198.51"/><circle class="cls-24" cx="18.32" cy="81.14" r="18"/><text class="cls-25" transform="translate(9.71 97.54) rotate(-20.39)">₹+</text><circle class="cls-24" cx="58.38" cy="57.51" r="15.47"/><text class="cls-26" transform="translate(45.23 66.49) rotate(7.58)">₹+</text><circle class="cls-24" cx="30.65" cy="12.22" r="12.11"/><text class="cls-27" transform="matrix(0.99, -0.16, 0.16, 0.99, 22.86, 21.95)">₹+</text><circle class="cls-24" cx="451.42" cy="103.16" r="18"/><text class="cls-25" transform="translate(442.81 119.56) rotate(-20.39)">₹+</text><circle class="cls-24" cx="401.38" cy="57.51" r="15.47"/><text class="cls-26" transform="translate(388.23 66.49) rotate(7.58)">₹+</text><circle class="cls-24" cx="469.65" cy="12.22" r="12.11"/><text class="cls-27" transform="matrix(0.99, -0.16, 0.16, 0.99, 461.86, 21.95)">₹+</text></g></g></svg>