<svg height="384pt" viewBox="0 0 384 384" width="384pt" xmlns="http://www.w3.org/2000/svg"><path d="m312 144c39.703125 0 72-32.296875 72-72s-32.296875-72-72-72-72 32.296875-72 72c0 7.160156 1.078125 14.0625 3.039062 20.59375l-113.253906 56.621094c-13.136718-17.6875-34.113281-29.214844-57.785156-29.214844-39.703125 0-72 32.296875-72 72s32.296875 72 72 72c23.671875 0 44.65625-11.535156 57.785156-29.222656l113.253906 56.628906c-1.960937 6.53125-3.039062 13.433594-3.039062 20.59375 0 39.703125 32.296875 72 72 72s72-32.296875 72-72-32.296875-72-72-72c-21.039062 0-39.9375 9.121094-53.113281 23.550781l-116.199219-58.101562c.832031-4.359375 1.3125-8.847657 1.3125-13.449219 0-4.609375-.480469-9.097656-1.304688-13.457031l116.199219-58.09375c13.167969 14.429687 32.066407 23.550781 53.105469 23.550781zm0-112c22.054688 0 40 17.945312 40 40s-17.945312 40-40 40-40-17.945312-40-40 17.945312-40 40-40zm-240 200c-22.054688 0-40-17.945312-40-40s17.945312-40 40-40 40 17.945312 40 40-17.945312 40-40 40zm240 40c22.054688 0 40 17.945312 40 40s-17.945312 40-40 40-40-17.945312-40-40 17.945312-40 40-40zm0 0"/></svg>