<?xml version="1.0" encoding="iso-8859-1"?>
<!-- Generator: Adobe Illustrator 19.0.0, SVG Export Plug-In . SVG Version: 6.00 Build 0)  -->
<svg version="1.1" id="Capa_1" xmlns="http://www.w3.org/2000/svg" xmlns:xlink="http://www.w3.org/1999/xlink" x="0px" y="0px"
	 viewBox="0 0 56.406 56.406" style="enable-background:new 0 0 56.406 56.406;" xml:space="preserve">
<g>
	<path d="M44.802,36.087c-2.971,0-5.636,1.28-7.494,3.314l-16.143-7.766c0.386-1.075,0.605-2.224,0.605-3.432
		c0-1.204-0.221-2.355-0.605-3.431l16.143-7.763c1.858,2.032,4.525,3.315,7.494,3.315c5.611,0,10.162-4.55,10.162-10.162
		C54.964,4.549,50.413,0,44.802,0C39.19,0,34.639,4.549,34.639,10.162c0,0.539,0.055,1.063,0.136,1.577L17.59,20.002
		c-1.681-1.228-3.745-1.961-5.985-1.961c-5.612,0-10.162,4.549-10.162,10.159c0,5.616,4.55,10.164,10.162,10.164
		c2.24,0,4.305-0.732,5.984-1.962l17.184,8.265c-0.08,0.515-0.136,1.039-0.136,1.577c0,5.612,4.552,10.162,10.163,10.162
		c5.612,0,10.163-4.55,10.163-10.162C54.963,40.635,50.413,36.087,44.802,36.087z M44.802,6.002c2.295,0,4.162,1.867,4.162,4.162
		s-1.867,4.162-4.162,4.162c-1.582,0-2.601-0.855-3.066-1.364l-0.84-0.918l-0.194-1.236c-0.042-0.268-0.063-0.479-0.063-0.644
		C40.639,7.869,42.506,6.002,44.802,6.002z M15.517,29.609l-0.426,1.188l-1.047,0.766c-0.501,0.367-1.331,0.804-2.44,0.804
		c-2.295,0-4.162-1.868-4.162-4.164c0-2.293,1.867-4.159,4.162-4.159c1.11,0,1.943,0.438,2.446,0.806l1.041,0.76l0.424,1.186
		c0.169,0.472,0.255,0.946,0.255,1.409C15.77,28.675,15.688,29.135,15.517,29.609z M44.8,50.408c-2.296,0-4.163-1.867-4.163-4.162
		c0-0.162,0.021-0.376,0.064-0.655l0.189-1.215l0.847-0.928c0.802-0.878,1.891-1.361,3.064-1.361c2.295,0,4.161,1.866,4.161,4.159
		C48.963,48.541,47.096,50.408,44.8,50.408z"/>
</g>
<g>
</g>
<g>
</g>
<g>
</g>
<g>
</g>
<g>
</g>
<g>
</g>
<g>
</g>
<g>
</g>
<g>
</g>
<g>
</g>
<g>
</g>
<g>
</g>
<g>
</g>
<g>
</g>
<g>
</g>
</svg>
