<?xml version="1.0"?>
<svg xmlns="http://www.w3.org/2000/svg" height="512px" viewBox="0 0 512 512" width="512px"><path d="m432 0h-352c-44.113281 0-80 35.886719-80 80v352c0 44.113281 35.886719 80 80 80h352c44.113281 0 80-35.886719 80-80 0-11.046875-8.953125-20-20-20s-20 8.953125-20 20c0 22.054688-17.945312 40-40 40h-352c-22.054688 0-40-17.945312-40-40v-271.101562c0-22.054688 17.945312-40 40-40h118v27.101562c0 33.085938 26.914062 60 60 60s60-26.914062 60-60v-28h114c22.054688 0 40 17.945312 40 40v172.507812c0 11.046876 8.953125 20 20 20s20-8.953124 20-20v-252.507812c0-44.113281-35.886719-80-80-80zm-352 80.898438c-14.566406 0-28.222656 3.933593-40 10.765624v-11.664062c0-22.054688 17.945312-40 40-40h118v40.898438zm198 67.101562c0 11.027344-8.972656 20-20 20s-20-8.972656-20-20v-107h40zm154-68h-114v-40h114c22.054688 0 40 17.945312 40 40v10.761719c-11.777344-6.828125-25.433594-10.761719-40-10.761719zm-21 221h-279.9375l17.144531 37.722656c4.570313 10.058594.125 21.914063-9.929687 26.484375-2.6875 1.21875-5.496094 1.796875-8.265625 1.796875-7.601563 0-14.867188-4.355468-18.21875-11.730468l-30-66c-2.816407-6.1875-2.289063-13.382813 1.390625-19.101563 3.683594-5.71875 10.015625-9.171875 16.816406-9.171875h311c11.046875 0 20 8.953125 20 20s-8.953125 20-20 20zm0 0" fill="#495867"/></svg>
